<svg width="50" height="50" viewBox="0 0 50 50" fill="none" xmlns="http://www.w3.org/2000/svg">
<circle cx="25" cy="25" r="24.5" stroke="#F7B431"/>
<g clip-path="url(#clip0)">
<path d="M36.5015 28.9977L28.0234 13.4129C26.6613 11.1197 23.3408 11.1167 21.9768 13.4129L13.4992 28.9977C12.1067 31.341 13.7926 34.3082 16.5218 34.3082H33.4782C36.2051 34.3082 37.8939 31.3434 36.5015 28.9977ZM25.0001 31.4957C24.2249 31.4957 23.5939 30.8647 23.5939 30.0895C23.5939 29.3143 24.2249 28.6832 25.0001 28.6832C25.7753 28.6832 26.4064 29.3143 26.4064 30.0895C26.4064 30.8647 25.7753 31.4957 25.0001 31.4957ZM26.4064 25.8707C26.4064 26.646 25.7753 27.277 25.0001 27.277C24.2249 27.277 23.5939 26.646 23.5939 25.8707V18.8395C23.5939 18.0643 24.2249 17.4332 25.0001 17.4332C25.7753 17.4332 26.4064 18.0643 26.4064 18.8395V25.8707Z" fill="#F7B431"/>
</g>
<defs>
<clipPath id="clip0">
<rect width="24" height="24" fill="white" transform="translate(13 11)"/>
</clipPath>
</defs>
</svg>
