<svg width="50" height="50" viewBox="0 0 50 50" fill="none" xmlns="http://www.w3.org/2000/svg">
<circle cx="25" cy="25" r="24.5" stroke="#02C2A8"/>
<path fill-rule="evenodd" clip-rule="evenodd" d="M26.4147 9.06798C27.5417 8.77579 28.6922 9.45254 28.9844 10.5795L32.1425 22.7606C32.4346 23.8876 31.7579 25.0381 30.6309 25.3303C29.5039 25.6224 28.3534 24.9457 28.0612 23.8187L24.9032 11.6376C24.611 10.5106 25.2877 9.36016 26.4147 9.06798Z" fill="#93E0D6" stroke="#02C2A8" stroke-linecap="round" stroke-linejoin="round"/>
<path fill-rule="evenodd" clip-rule="evenodd" d="M31.9075 12.1371C33.0718 12.1458 34.0085 13.0966 33.9999 14.2608L33.8917 28.8115C33.8831 29.9757 32.9323 30.9125 31.7681 30.9039C30.6038 30.8952 29.6671 29.9444 29.6757 28.7802L29.7839 14.2295C29.7925 13.0653 30.7433 12.1285 31.9075 12.1371Z" fill="#93E0D6" stroke="#02C2A8" stroke-linecap="round" stroke-linejoin="round"/>
<path fill-rule="evenodd" clip-rule="evenodd" d="M21.1973 24.2692C21.1105 24.3073 21.0218 24.3416 20.9317 24.3718C20.1178 24.6443 19.1974 24.5778 18.5926 23.9731C18.587 23.9675 18.5814 23.9618 18.5759 23.9562C17.6637 23.0257 17.6611 21.5038 18.7769 20.8257C18.9983 20.6912 19.2246 20.5655 19.4553 20.4489C19.5144 20.4191 19.5737 20.3899 19.6333 20.3612C19.7048 20.3269 19.7767 20.2934 19.8489 20.2607C21.1015 19.6953 22.4695 19.3904 23.8698 19.3807C26.4818 19.3628 28.9959 20.3739 30.8681 22.1954C32.7403 24.0168 33.8202 26.5022 33.874 29.1137C33.9279 31.7252 32.9514 34.253 31.1558 36.15C29.3603 38.0471 26.89 39.161 24.2795 39.2507C21.6689 39.3405 19.128 38.3988 17.2064 36.6295C15.2848 34.8602 14.1371 32.4055 14.0115 29.7964C13.9441 28.3965 14.1739 27.0126 14.6706 25.7299C14.6966 25.6626 14.7235 25.5954 14.751 25.5286C14.7758 25.4687 14.8011 25.4089 14.827 25.3494C14.9347 25.1022 15.0526 24.8592 15.1803 24.621C15.798 23.4694 17.3244 23.3948 18.2978 24.2666C18.298 24.2668 18.2982 24.267 18.2984 24.2672C18.9351 24.838 19.0551 25.7511 18.8333 26.5803C18.8082 26.6743 18.7787 26.7672 18.745 26.8584C18.7241 26.9152 18.7015 26.9714 18.6774 27.0267C18.4712 27.5 18.3294 28 18.2566 28.5133C18.2062 28.8688 18.189 29.2307 18.2065 29.5945C18.279 31.1009 18.9417 32.5183 20.0512 33.5399C21.1607 34.5615 22.6279 35.1052 24.1352 35.0534C25.6425 35.0016 27.0688 34.3584 28.1056 33.2631C29.1424 32.1677 29.7062 30.7082 29.6751 29.2003C29.644 27.6924 29.0205 26.2573 27.9395 25.2056C26.8584 24.1539 25.4068 23.5701 23.8986 23.5805C23.5329 23.583 23.171 23.6204 22.8174 23.6908C22.3064 23.7925 21.8127 23.9632 21.3497 24.1973C21.2996 24.2226 21.2488 24.2465 21.1973 24.2692Z" fill="#93E0D6" stroke="#02C2A8" stroke-miterlimit="5.75877" stroke-linecap="round" stroke-linejoin="round"/>
</svg>
