<svg width="273" height="243" viewBox="0 0 273 243" fill="none" xmlns="http://www.w3.org/2000/svg">
<path d="M99.1893 2.63838C74.0363 -4.83282 50.468 5.02124 40.9026 14.0716C33.1428 21.4296 26.8036 33.3156 41.0668 33.7797C63.6388 34.5268 69.2309 38.1209 75.5418 42.898C80.217 46.4411 83.4658 58.3215 65.3538 64.7569C50.1454 70.1622 33.522 68.8264 15.0477 89.5986C-8.72426 116.297 -3.13784 165.975 26.0281 197.257C39.2499 211.447 56.0601 221.839 73.7702 228.953C84.2016 233.153 112.513 243.341 153.01 239.328C207.018 233.98 238.052 201.327 252.026 177.821C266.872 152.86 274.23 122.381 272.47 93.1758C271.626 78.8198 267.808 64.7959 261.258 51.9936C252.128 34.2834 237.248 19.2222 218.395 13.0584C198.585 6.58906 178.322 12.0623 158.172 12.6283C136.709 13.2226 124.195 9.99638 99.1893 2.63838Z" fill="#ADD2E2"/>
<path opacity="0.5" d="M99.1893 2.63838C74.0363 -4.83282 50.468 5.02124 40.9026 14.0716C33.1428 21.4296 26.8036 33.3156 41.0668 33.7797C63.6388 34.5268 69.2309 38.1209 75.5418 42.898C80.217 46.4411 83.4658 58.3215 65.3538 64.7569C50.1454 70.1622 33.522 68.8264 15.0477 89.5986C-8.72426 116.297 -3.13784 165.975 26.0281 197.257C39.2499 211.447 56.0601 221.839 73.7702 228.953C84.2016 233.153 112.513 243.341 153.01 239.328C207.018 233.98 238.052 201.327 252.026 177.821C266.872 152.86 274.23 122.381 272.47 93.1758C271.626 78.8198 267.808 64.7959 261.258 51.9936C252.128 34.2834 237.248 19.2222 218.395 13.0584C198.585 6.58906 178.322 12.0623 158.172 12.6283C136.709 13.2226 124.195 9.99638 99.1893 2.63838Z" fill="#FAFAFA"/>
<path d="M45.1985 40.7528C29.4694 45.6544 26.1923 58.3497 33.4031 63.6701C40.6139 68.9906 49.8171 62.0344 60.9333 59.578C66.3782 58.378 68.7498 52.4011 66.0273 47.341C63.1237 42.0489 54.7922 37.7587 45.1985 40.7528Z" fill="#ADD2E2"/>
<path opacity="0.4" d="M45.1985 40.7528C29.4694 45.6544 26.1923 58.3497 33.4031 63.6701C40.6139 68.9906 49.8171 62.0344 60.9333 59.578C66.3782 58.378 68.7498 52.4011 66.0273 47.341C63.1237 42.0489 54.7922 37.7587 45.1985 40.7528Z" fill="#FAFAFA"/>
<path d="M8.43109 60.5175C8.43109 64.1173 12.1327 68.4981 18.5681 66.2454C25.0036 63.9928 26.4921 53.7142 19.8416 51.5917C13.1911 49.4692 8.39713 54.9877 8.43109 60.5175Z" fill="#ADD2E2"/>
<path opacity="0.4" d="M8.43109 60.5175C8.43109 64.1173 12.1327 68.4981 18.5681 66.2454C25.0036 63.9928 26.4921 53.7142 19.8416 51.5917C13.1911 49.4692 8.39713 54.9877 8.43109 60.5175Z" fill="#FAFAFA"/>
<path opacity="0.2" d="M69.2819 94.1776C114.437 105.249 131.055 88.5516 193.57 69.6245C228.13 59.1648 256.475 63.9645 268.582 70.4735C266.758 64.0925 264.31 57.9065 261.275 52.0049C258.778 47.1425 255.851 42.513 252.53 38.1719C196.632 23.7049 135.493 76.4505 96.8121 80.1804C67.4367 83.0104 52.6981 75.8279 33.3239 74.9392C32.9277 75.143 32.5259 75.3637 32.1297 75.5845L31.6033 75.8788C31.2184 76.0995 30.8222 76.3259 30.4317 76.5637L29.8657 76.9089L28.9544 77.4749L28.1111 78.0409L27.3809 78.539C27.0413 78.7711 26.7017 79.0144 26.3621 79.2578L25.6716 79.7672C25.4056 79.9653 25.1396 80.1634 24.8735 80.3728L24.4094 80.7351C23.951 81.0917 23.4925 81.4652 23.034 81.8671L22.6661 82.1784C22.1624 82.6029 21.6643 83.0387 21.1606 83.4915C21.0549 83.5821 20.9474 83.6783 20.838 83.7802C20.272 84.2839 19.706 84.8046 19.14 85.348L18.9702 85.5178C18.6532 85.8234 18.3362 86.1404 18.0193 86.4573C29.0336 85.8404 43.6082 87.8837 69.2819 94.1776Z" fill="#FAFAFA"/>
<path opacity="0.2" d="M126.538 68.0227C103.989 78.9295 97.9497 84.7933 76.1361 78.1767C63.6841 74.3958 53.9489 71.4357 45.5155 70.1056C38.6071 72.0003 32.091 75.1089 26.2715 79.2861C36.8444 78.7201 47.2418 80.5256 61.205 83.8594C80.8848 88.5572 96.9762 91.4551 120.98 78.3918C144.984 65.3285 155.846 56.5612 171.088 50.7936C155.824 55.4029 140.932 61.1625 126.538 68.0227V68.0227Z" fill="#FAFAFA"/>
<path opacity="0.2" d="M117.29 177.832C58.4601 165.562 31.6487 169.416 12.699 178.964C13.6121 180.579 14.5687 182.17 15.5686 183.736L15.6365 183.838C16.6214 185.377 17.6534 186.887 18.7325 188.366L18.8967 188.586C19.3665 189.232 19.8476 189.871 20.3343 190.505L20.5777 190.822C21.1097 191.513 21.6588 192.197 22.2134 192.871L22.4229 193.126C22.8983 193.692 23.3851 194.258 23.8775 194.824L24.3076 195.316C24.8736 195.956 25.4396 196.595 26.0056 197.218C26.7924 198.056 27.5848 198.882 28.3942 199.697L28.5809 199.889C31.5009 202.812 34.5749 205.576 37.7898 208.17C46.1722 202.374 60.9278 195.718 85.0111 194.869C129.091 193.346 174.79 211.543 215.265 197.241C231.679 191.433 242.552 186.17 250.006 181.132C250.725 180 251.404 178.913 252.043 177.832C260.374 163.689 266.303 148.262 269.589 132.179C228.47 190.358 172.447 189.339 117.29 177.832Z" fill="#FAFAFA"/>
<path opacity="0.3" d="M272.006 116.365C272.357 112.844 272.582 109.318 272.68 105.786C255.445 97.4038 226.89 97.0925 201.432 109.312C164.189 127.187 130.778 145.418 75.5928 123.253C39.6631 108.82 14.81 112.442 1.82601 116.71C1.69017 117.361 1.55999 118.017 1.44113 118.674C1.40717 118.855 1.37887 119.036 1.35057 119.24C1.26567 119.727 1.18077 120.219 1.10719 120.712C1.07323 120.915 1.04493 121.125 1.01663 121.329C0.943051 121.832 0.875131 122.336 0.812871 122.845L0.744951 123.361C0.586471 124.719 0.467611 126.089 0.377051 127.464L0.343091 128.03C0.316677 128.539 0.294037 129.049 0.275171 129.558C0.275171 129.773 0.275171 129.988 0.275171 130.198C0.275171 130.713 0.275171 131.228 0.241211 131.749C0.241211 131.93 0.241211 132.117 0.241211 132.315C0.241211 133.715 0.271398 135.12 0.331771 136.531C0.331771 136.718 0.331771 136.905 0.360071 137.097C0.388371 137.618 0.416671 138.139 0.456291 138.66C0.456291 138.88 0.484591 139.101 0.501571 139.322C0.541191 139.842 0.592131 140.363 0.637411 140.884C0.637411 141.076 0.671371 141.269 0.694011 141.45C0.837398 142.869 1.02606 144.291 1.26001 145.718L1.34491 146.284C1.42981 146.816 1.51471 147.348 1.60527 147.874L1.72413 148.536C1.82035 149.057 1.91657 149.578 2.02411 150.098C2.05807 150.296 2.09769 150.495 2.13731 150.664C2.28447 151.372 2.43163 152.079 2.59577 152.781C11.98 145.604 32.356 138.478 77.1493 149.708C132.617 163.654 170.913 148.995 201.432 127.187C221.485 112.861 244.736 105.854 272.006 116.365Z" fill="#FAFAFA"/>
<path opacity="0.2" d="M209.287 85.5687C173.279 98.9376 162.026 116.319 130.523 118.997C100.219 121.566 45.1362 96.9227 2.75409 112.89C2.18809 114.893 1.75227 116.942 1.37871 119.025V119.133C1.25985 119.8 1.15231 120.468 1.05609 121.142V121.204C0.645964 124.056 0.390889 126.928 0.291992 129.807C25.9997 117.429 54.2318 126.36 93.5971 137.245C129.108 147.065 152.512 140.827 211.563 113.648C232.895 103.828 256.656 100.771 272.351 112.759C272.847 106.246 272.902 99.7074 272.515 93.1871C272.425 91.6532 272.289 90.1307 272.13 88.6025C259.373 80.5313 232.216 77.0504 209.287 85.5687Z" fill="#FAFAFA"/>
<path opacity="0.2" d="M191.046 88.1044C163.742 100.947 137.276 125.687 103.514 116.325C103.514 116.325 121.518 129.7 157.527 113.654C191.906 98.332 232.901 77.4296 272.657 96.9849C272.617 95.7171 272.561 94.4492 272.487 93.1927C272.276 89.7288 271.899 86.2818 271.355 82.8519C246.785 68.2491 215.457 76.6146 191.046 88.1044Z" fill="#FAFAFA"/>
<path opacity="0.2" d="M252.043 177.832C253.764 174.942 255.381 171.978 256.894 168.94C214.15 204.672 180.484 196.035 132.498 189.045C84.7903 182.1 65.2576 173.819 22.468 193.205C22.9925 193.839 23.5283 194.467 24.0755 195.09C24.1547 195.18 24.2339 195.276 24.3188 195.367C24.8848 196.007 25.4508 196.635 26.0168 197.257C26.7357 198.027 27.4658 198.78 28.2016 199.521L28.8072 200.127C29.4713 200.791 30.143 201.444 30.8222 202.085C31.1674 202.414 31.5184 202.736 31.8693 203.059L32.8598 203.965C39.5566 209.949 46.862 215.215 54.6564 219.677C88.0504 195.214 130.229 213.592 178.469 210.892C210.403 209.104 229.635 201.185 241.465 192.837C245.36 188.106 248.896 183.091 252.043 177.832V177.832Z" fill="#FAFAFA"/>
<path opacity="0.2" d="M147.656 28.6744C125.208 39.1114 119.13 44.5224 101.674 39.6038C85.5431 35.0758 71.6761 27.2367 46.8853 34.074C64.6633 35.206 69.8083 38.5737 75.5305 42.9093C92.9463 47.0071 106.434 55.5141 126.538 46.826C149.399 36.9493 162.406 22.4597 176.182 22.4031C176.182 22.3861 170.098 18.2204 147.656 28.6744Z" fill="#FAFAFA"/>
<path opacity="0.2" d="M133.002 11.1284C129.863 11.9849 126.629 13.0037 123.301 14.1848C100.31 22.3804 87.8749 15.5488 69.4856 7.35315C66.05 5.81929 62.9709 4.48353 60.2315 3.31757C53.0093 5.67779 46.9928 9.01719 42.8157 12.3736C60.4296 12.9396 74.9531 30.3101 106.27 27.9838C128.621 26.3255 136.33 17.6713 148.901 12.6C143.575 12.4611 138.263 11.9695 133.002 11.1284V11.1284Z" fill="#FAFAFA"/>
<path opacity="0.3" d="M8.4312 60.5176C8.4312 64.1173 12.1328 68.4982 18.5683 66.2455C22.3152 64.938 24.3811 60.9081 24.149 57.348C19.6908 57.1215 15.3817 55.6682 11.697 53.1483C10.6651 54.0779 9.84087 55.2148 9.27812 56.4846C8.71538 57.7544 8.4268 59.1286 8.4312 60.5176V60.5176Z" fill="#FAFAFA"/>
<path opacity="0.3" d="M48.4531 48.8749C44.361 51.2465 37.6312 55.6669 29.7751 56.9914C29.8384 58.3059 30.1974 59.5891 30.8256 60.7455C31.4538 61.902 32.3349 62.9017 33.4032 63.6702C35.1352 64.9565 37.2398 65.6421 39.3971 65.6229C44.6157 63.0306 48.3852 59.4704 53.2245 55.1009C58.4883 50.3522 63.1465 48.7278 66.4406 48.2693C66.3108 47.9519 66.1634 47.642 65.9991 47.3411C65.29 46.0571 64.3609 44.9076 63.254 43.9451C58.3242 43.8828 53.417 46.0053 48.4531 48.8749Z" fill="#FAFAFA"/>
<path d="M246.429 217.815C246.268 218.786 245.994 219.736 245.614 220.645C240.338 226.661 230.733 228.167 222.617 226.118L217.885 222.195C215.055 215.76 214.229 206.602 218.027 199.861C219.345 198.849 220.835 198.083 222.424 197.597C222.338 198.391 222.098 199.16 221.717 199.861C221.066 201.129 220.149 202.267 219.606 203.591C219.062 204.915 218.966 206.551 219.872 207.661C219.983 205.693 220.565 203.781 221.57 202.085C222.56 200.416 223.97 198.933 224.57 197.105C226.012 196.866 227.481 196.832 228.933 197.003C228.842 197.335 228.686 197.647 228.475 197.92C227.847 198.689 227.037 199.301 226.403 200.071C225.795 200.878 225.293 201.761 224.909 202.697C223.563 205.685 222.392 208.748 221.4 211.872C223.098 210.825 223.545 208.628 224.377 206.817C225.362 204.7 226.947 203.002 228.537 201.304C229.524 200.33 230.401 199.25 231.152 198.084C231.267 197.886 231.371 197.682 231.463 197.473C232.678 197.801 233.857 198.249 234.984 198.808C234.65 199.42 234.497 200.059 233.965 200.948C233.264 202.147 232.386 203.235 231.362 204.174C229.284 205.963 227.762 207.038 227.4 210.779C228.464 209.155 229.879 207.151 231.362 205.912C233.303 204.31 235.261 202.85 236.761 200.818C236.932 200.567 237.073 200.297 237.18 200.014C237.656 200.308 238.878 201.248 239.371 201.599C238.49 202.7 237.489 203.701 236.388 204.582C234.854 205.764 232.828 206.93 231.599 208.425C229.964 210.417 228.945 212.387 226.952 214.045C229.449 213.383 230.705 211.215 232.612 209.517C233.535 208.708 235.307 207.938 236.303 207.253C237.972 206.053 239.133 204.553 240.423 202.957C240.497 202.872 240.565 202.782 240.644 202.68C241.262 203.164 241.831 203.708 242.342 204.304C242.002 204.838 241.624 205.347 241.21 205.827C239.693 207.416 237.912 208.73 235.946 209.71C234.814 210.276 233.484 210.813 232.799 211.911C234.497 210.213 237.706 211.6 239.716 210.253C240.921 209.443 241.414 207.819 242.71 207.157C243.18 206.953 243.667 206.788 244.165 206.664C244.656 207.422 245.08 208.221 245.432 209.053C245.32 209.089 245.211 209.132 245.104 209.183C244.295 209.656 243.581 210.276 242.999 211.011C242.403 211.749 241.621 212.316 240.735 212.653C239.818 212.93 238.822 212.743 237.905 212.953C236.603 213.247 235.612 214.266 234.599 215.137C233.586 216.009 232.301 216.807 230.999 216.524C231.817 216.844 232.699 216.959 233.571 216.861C234.443 216.762 235.278 216.452 236.003 215.958C236.829 215.392 237.559 214.537 238.555 214.424C239.552 214.311 240.474 214.945 241.453 214.86C243.117 214.724 243.989 212.721 245.563 212.166C245.813 212.084 246.071 212.027 246.332 211.996C246.539 213.007 246.642 214.037 246.638 215.07C246.358 215.175 246.084 215.296 245.817 215.432C244.719 215.998 243.729 216.762 242.568 217.169C241.504 217.469 240.415 217.676 239.314 217.786C238.209 217.91 237.171 218.38 236.348 219.128C238.306 218.216 240.661 219.609 242.738 219.043C243.633 218.794 244.402 218.2 245.302 217.973C245.671 217.883 246.049 217.83 246.429 217.815V217.815Z" fill="#455A64"/>
<path d="M223.743 171.454C224.525 174.374 225.034 177.555 223.942 180.374C222.244 184.692 217.348 186.962 215.253 191.094C212.774 195.978 214.778 202.329 211.993 207.049C210.827 209.025 208.886 210.559 208.184 212.749C207.924 213.558 207.851 214.416 207.971 215.258C208.09 216.099 208.4 216.903 208.876 217.607C209.352 218.311 209.982 218.898 210.718 219.324C211.454 219.749 212.277 220.001 213.125 220.062C214.631 217.769 217.523 216.711 219.091 214.464C221.049 211.668 220.438 207.876 219.657 204.548C218.876 201.22 218.066 197.535 219.725 194.552C220.885 192.475 223.03 191.156 224.723 189.503C226.115 188.113 227.213 186.456 227.951 184.631C228.689 182.807 229.052 180.853 229.019 178.885C228.945 175.851 227.926 172.931 226.851 170.09C225.775 167.248 225 165.488 224.411 162.511C223.879 159.811 224.926 156.285 226.494 152.827C224.403 155.28 222.964 158.222 222.311 161.379C221.627 164.95 222.827 168.041 223.743 171.454Z" fill="#ADD2E2"/>
<path opacity="0.2" d="M223.743 171.454C224.525 174.374 225.034 177.555 223.942 180.374C222.244 184.692 217.348 186.962 215.253 191.094C212.774 195.978 214.778 202.329 211.993 207.049C210.827 209.025 208.886 210.559 208.184 212.749C207.924 213.558 207.851 214.416 207.971 215.258C208.09 216.099 208.4 216.903 208.876 217.607C209.352 218.311 209.982 218.898 210.718 219.324C211.454 219.749 212.277 220.001 213.125 220.062C214.631 217.769 217.523 216.711 219.091 214.464C221.049 211.668 220.438 207.876 219.657 204.548C218.876 201.22 218.066 197.535 219.725 194.552C220.885 192.475 223.03 191.156 224.723 189.503C226.115 188.113 227.213 186.456 227.951 184.631C228.689 182.807 229.052 180.853 229.019 178.885C228.945 175.851 227.926 172.931 226.851 170.09C225.775 167.248 225 165.488 224.411 162.511C223.879 159.811 224.926 156.285 226.494 152.827C224.403 155.28 222.964 158.222 222.311 161.379C221.627 164.95 222.827 168.041 223.743 171.454Z" fill="black"/>
<path opacity="0.1" d="M223.742 171.454C224.523 174.374 225.032 177.555 223.94 180.374C222.242 184.692 217.346 186.962 215.252 191.094C212.773 195.978 214.776 202.329 211.992 207.049C210.826 209.025 208.884 210.559 208.183 212.749C207.928 213.559 207.859 214.415 207.978 215.255C208.098 216.095 208.403 216.898 208.873 217.605C209.327 218.266 209.918 218.822 210.605 219.235C213.48 215.839 216.027 211.996 215.541 205.883C215.031 199.516 215.003 195.175 222.553 187.851C230.104 180.527 226.696 174.742 224.393 168.607C222.089 162.471 223.714 157.156 226.493 152.827C224.401 155.28 222.962 158.222 222.31 161.379C221.625 164.95 222.825 168.041 223.742 171.454Z" fill="black"/>
<path d="M201.081 212.489C201.375 210.293 202.564 208.057 203.645 206.144C204.16 205.255 204.462 204.259 204.528 203.234C204.594 202.209 204.421 201.182 204.024 200.235C203.203 198.01 201.63 196.318 200.979 194.009C200.622 192.822 200.503 191.577 200.629 190.344C200.756 189.111 201.124 187.916 201.715 186.826C202.66 185.128 203.814 183.396 203.928 181.444C204.018 179.887 203.435 178.387 203.09 176.87C202.892 175.982 202.892 174.821 203.713 174.419C204.012 174.322 204.331 174.297 204.642 174.347C204.953 174.398 205.247 174.521 205.501 174.708C207.061 175.591 208.301 176.944 209.044 178.574C211.371 183.792 208.512 186.045 208.478 189.996C208.444 191.988 209.865 194.195 210.742 195.967C211.62 197.739 213.086 199.188 213.533 201.089C214.302 204.35 211.835 207.508 211.693 210.853C211.591 213.632 212.667 215.947 211.246 218.55C210.789 219.436 210.072 220.161 209.191 220.628C207.278 221.55 205.558 220.062 204.194 218.794C202.45 217.237 200.747 214.956 201.081 212.489Z" fill="#ADD2E2"/>
<path opacity="0.1" d="M201.081 212.489C201.375 210.293 202.564 208.057 203.645 206.144C204.16 205.255 204.462 204.259 204.528 203.234C204.594 202.209 204.421 201.182 204.024 200.235C203.203 198.01 201.63 196.318 200.979 194.009C200.622 192.822 200.503 191.577 200.629 190.344C200.756 189.111 201.124 187.916 201.715 186.826C202.66 185.128 203.814 183.396 203.928 181.444C204.018 179.887 203.435 178.387 203.09 176.87C202.892 175.982 202.892 174.821 203.713 174.419C204.012 174.322 204.331 174.297 204.642 174.347C204.953 174.398 205.247 174.521 205.501 174.708C207.061 175.591 208.301 176.944 209.044 178.574C211.371 183.792 208.512 186.045 208.478 189.996C208.444 191.988 209.865 194.195 210.742 195.967C211.62 197.739 213.086 199.188 213.533 201.089C214.302 204.35 211.835 207.508 211.693 210.853C211.591 213.632 212.667 215.947 211.246 218.55C210.789 219.436 210.072 220.161 209.191 220.628C207.278 221.55 205.558 220.062 204.194 218.794C202.45 217.237 200.747 214.956 201.081 212.489Z" fill="black"/>
<path d="M206.118 178.851C206.437 179.743 206.542 180.697 206.424 181.636C206.311 182.571 206.112 183.494 205.829 184.392C205.309 186.192 204.663 187.975 204.567 189.82C204.51 190.731 204.623 191.645 204.901 192.514C205.053 192.947 205.242 193.366 205.467 193.765L206.129 194.999C207.098 196.632 207.944 198.335 208.659 200.093C209.311 201.939 209.479 203.921 209.146 205.849C209.089 206.331 208.971 206.795 208.874 207.27L208.563 208.634C208.359 209.545 208.172 210.451 207.997 211.362C207.658 213.162 207.519 214.994 207.584 216.824C207.628 218.586 208.125 220.308 209.027 221.822L207.714 222.614C206.742 220.858 206.237 218.882 206.248 216.875C206.246 214.951 206.454 213.032 206.871 211.153C207.063 210.219 207.284 209.302 207.522 208.385C207.759 207.468 208.025 206.58 208.184 205.691C208.555 203.915 208.464 202.073 207.918 200.342C207.27 198.602 206.497 196.91 205.603 195.282L204.98 194.014C204.311 192.72 204.031 191.259 204.177 189.809C204.352 187.896 205.065 186.124 205.642 184.353C205.952 183.471 206.181 182.564 206.327 181.642C206.476 180.708 206.404 179.752 206.118 178.851Z" fill="#FAFAFA"/>
<path d="M201.047 212.121L191.827 220.067L189.036 225.32L195.715 225.439L204.556 228.24L206.061 222.688L201.596 217.945L201.047 212.121Z" fill="#ADD2E2"/>
<path opacity="0.3" d="M201.047 212.121L191.827 220.067L189.036 225.32L195.715 225.439L204.556 228.24L206.061 222.688L201.596 217.945L201.047 212.121Z" fill="black"/>
<path d="M201.047 212.121L207.222 211.566L209.327 217.617L206.061 222.688L201.596 217.945L201.047 212.121Z" fill="#ADD2E2"/>
<path opacity="0.35" d="M201.047 212.121L207.222 211.566L209.327 217.617L206.061 222.688L201.596 217.945L201.047 212.121Z" fill="black"/>
<path d="M217.008 217.09L218.474 221.85L213.85 220.995L208.88 224.437L206.877 227.737L205.773 233.844L204.969 242.317L201.426 235.576L204.556 228.24L207.929 223.282L213.459 220.509L217.008 217.09Z" fill="#ADD2E2"/>
<path d="M213.765 236.396L220.472 229.072L216.532 223.775L213.765 236.396Z" fill="#ADD2E2"/>
<g opacity="0.5">
<path opacity="0.5" d="M217.008 217.09L218.474 221.85L213.85 220.995L208.88 224.437L206.877 227.737L205.773 233.844L204.969 242.317L201.426 235.576L204.556 228.24L207.929 223.282L213.459 220.509L217.008 217.09Z" fill="black"/>
<path opacity="0.5" d="M213.765 236.396L220.472 229.072L216.533 223.775L213.765 236.396Z" fill="black"/>
</g>
<path d="M195.67 216.756L192.568 221.477L192.03 223.956L195.687 223.661L204.556 228.24L195.715 225.439L189.036 225.32L191.827 220.067L195.67 216.756Z" fill="#ADD2E2"/>
<path d="M207.222 211.566L207.873 217.503L204.907 221.46L206.061 222.688L209.327 217.617L207.222 211.566Z" fill="#ADD2E2"/>
<path d="M201.426 235.576L196.649 235.327L186.761 233.612L180.173 229.967L181.916 226.457L185.402 225.393L182.691 227.057L182.55 229.378L186.15 231.455L200.718 234.297L204.556 228.24L201.426 235.576Z" fill="#ADD2E2"/>
<g opacity="0.25">
<path opacity="0.25" d="M195.67 216.756L192.568 221.477L192.03 223.956L195.687 223.661L204.556 228.24L195.715 225.439L189.036 225.32L191.827 220.067L195.67 216.756Z" fill="black"/>
<path opacity="0.25" d="M207.222 211.566L207.873 217.503L204.907 221.46L206.061 222.688L209.327 217.617L207.222 211.566Z" fill="black"/>
<path opacity="0.25" d="M201.426 235.576L196.649 235.327L186.761 233.612L180.173 229.967L181.916 226.457L185.402 225.393L182.691 227.057L182.55 229.378L186.15 231.455L200.718 234.297L204.556 228.24L201.426 235.576Z" fill="black"/>
</g>
<path d="M191.827 220.067L185.402 225.393L182.691 227.057L182.55 229.378L186.15 231.455L200.718 234.297L201.805 232.582L196.377 228.801L192.823 229.576L189.036 225.32L191.827 220.067Z" fill="#ADD2E2"/>
<path opacity="0.35" d="M191.827 220.067L185.402 225.393L182.691 227.057L182.55 229.378L186.15 231.455L200.718 234.297L201.805 232.582L196.377 228.801L192.823 229.576L189.036 225.32L191.827 220.067Z" fill="black"/>
<path d="M207.222 211.566L217.008 217.09L213.459 220.509L207.929 223.282L204.556 228.24L206.061 222.688L209.327 217.617L207.222 211.566Z" fill="#ADD2E2"/>
<path d="M213.85 220.996L208.88 224.437L206.876 227.737L205.773 233.844L208.122 239.057L213.765 236.396L216.532 223.775L213.85 220.996Z" fill="#ADD2E2"/>
<path d="M189.036 225.32L192.823 229.576L196.377 228.801L195.715 225.439L189.036 225.32Z" fill="#ADD2E2"/>
<path d="M185.821 237.178L188.9 237.511L190.146 235.666L196.649 235.327L186.761 233.612L185.821 237.178Z" fill="#ADD2E2"/>
<g opacity="0.45">
<path opacity="0.45" d="M207.222 211.566L217.008 217.09L213.459 220.509L207.929 223.282L204.556 228.24L206.061 222.688L209.327 217.617L207.222 211.566Z" fill="black"/>
<path opacity="0.45" d="M213.85 220.996L208.88 224.437L206.877 227.737L205.773 233.844L208.122 239.057L213.765 236.396L216.533 223.775L213.85 220.996Z" fill="black"/>
<path opacity="0.45" d="M189.036 225.32L192.823 229.576L196.377 228.801L195.715 225.439L189.036 225.32Z" fill="black"/>
<path opacity="0.45" d="M185.821 237.178L188.9 237.511L190.146 235.666L196.649 235.327L186.761 233.612L185.821 237.178Z" fill="black"/>
</g>
<path d="M199.434 235.468L196.649 235.327L194.458 238.734L197.571 241.853L199.434 235.468Z" fill="#ADD2E2"/>
<path opacity="0.35" d="M199.434 235.468L196.649 235.327L194.458 238.734L197.571 241.853L199.434 235.468Z" fill="black"/>
<path d="M218.474 221.85L222.617 226.101L220.472 229.072L216.532 223.775L213.85 220.996L218.474 221.85Z" fill="#ADD2E2"/>
<path d="M204.969 242.317L208.122 239.057L205.773 233.844L204.969 242.317Z" fill="#ADD2E2"/>
<path d="M204.556 228.24L201.805 232.582L196.377 228.801L195.715 225.439L204.556 228.24Z" fill="#ADD2E2"/>
<path d="M180.173 229.967L179.244 234.246L185.821 237.177L186.761 233.612L180.173 229.967Z" fill="#ADD2E2"/>
<path d="M204.969 242.317L197.572 241.853L199.434 235.468L201.426 235.576L204.969 242.317Z" fill="#ADD2E2"/>
<path d="M188.9 237.511L194.458 238.734L196.649 235.327L190.146 235.666L188.9 237.511Z" fill="#ADD2E2"/>
<g opacity="0.4">
<path opacity="0.4" d="M218.474 221.85L222.617 226.101L220.472 229.072L216.532 223.775L213.85 220.996L218.474 221.85Z" fill="black"/>
<path opacity="0.4" d="M204.969 242.317L208.122 239.057L205.773 233.844L204.969 242.317Z" fill="black"/>
<path opacity="0.4" d="M204.556 228.24L201.805 232.582L196.377 228.801L195.715 225.439L204.556 228.24Z" fill="black"/>
<path opacity="0.4" d="M180.173 229.967L179.244 234.246L185.821 237.177L186.761 233.612L180.173 229.967Z" fill="black"/>
<path opacity="0.4" d="M204.969 242.317L197.572 241.853L199.434 235.468L201.426 235.576L204.969 242.317Z" fill="black"/>
<path opacity="0.4" d="M188.9 237.511L194.458 238.734L196.649 235.327L190.146 235.666L188.9 237.511Z" fill="black"/>
</g>
<path d="M30.1657 172.88C29.2431 175.766 28.5865 178.913 29.5487 181.783C31.0203 186.175 35.8257 188.671 37.7274 192.894C39.9914 197.891 37.6765 204.14 40.2405 208.985C41.3159 211.011 43.1837 212.636 43.7836 214.854C44.005 215.675 44.0371 216.536 43.8775 217.371C43.7179 218.206 43.3707 218.994 42.8622 219.675C42.3536 220.356 41.697 220.913 40.9419 221.304C40.1867 221.694 39.3528 221.908 38.5029 221.929C37.1048 219.575 34.2635 218.381 32.8032 216.066C30.9807 213.19 31.7901 209.421 32.6957 206.132C33.6013 202.844 34.6144 199.199 33.0919 196.142C32.0335 194.009 29.9506 192.611 28.3375 190.867C27.0109 189.413 25.9914 187.706 25.3398 185.848C24.6882 183.991 24.418 182.021 24.5453 180.057C24.7547 177.034 25.9094 174.159 27.1149 171.374C28.3205 168.59 29.1808 166.846 29.9053 163.92C30.5619 161.243 29.6789 157.694 28.2752 154.145C30.2526 156.693 31.5532 159.699 32.0561 162.884C32.5768 166.484 31.2241 169.512 30.1657 172.88Z" fill="#ADD2E2"/>
<path opacity="0.2" d="M30.1657 172.88C29.2431 175.766 28.5865 178.913 29.5487 181.783C31.0203 186.175 35.8257 188.671 37.7274 192.894C39.9914 197.891 37.6765 204.14 40.2405 208.985C41.3159 211.011 43.1837 212.636 43.7836 214.854C44.005 215.675 44.0371 216.536 43.8775 217.371C43.7179 218.206 43.3707 218.994 42.8622 219.675C42.3536 220.356 41.697 220.913 40.9419 221.304C40.1867 221.694 39.3528 221.908 38.5029 221.929C37.1048 219.575 34.2635 218.381 32.8032 216.066C30.9807 213.19 31.7901 209.421 32.6957 206.132C33.6013 202.844 34.6144 199.199 33.0919 196.142C32.0335 194.009 29.9506 192.611 28.3375 190.867C27.0109 189.413 25.9914 187.706 25.3398 185.848C24.6882 183.991 24.418 182.021 24.5453 180.057C24.7547 177.034 25.9094 174.159 27.1149 171.374C28.3205 168.59 29.1808 166.846 29.9053 163.92C30.5619 161.243 29.6789 157.694 28.2752 154.145C30.2526 156.693 31.5532 159.699 32.0561 162.884C32.5768 166.484 31.2241 169.512 30.1657 172.88Z" fill="black"/>
<path opacity="0.1" d="M30.1657 172.88C29.2431 175.767 28.5865 178.913 29.5487 181.783C31.0203 186.175 35.8257 188.671 37.7274 192.894C39.9914 197.891 37.6765 204.14 40.2405 208.985C41.3159 211.011 43.1837 212.636 43.7836 214.854C43.9985 215.676 44.0272 216.536 43.8676 217.37C43.708 218.204 43.3641 218.992 42.861 219.677C42.379 220.315 41.7651 220.842 41.0612 221.222C38.3444 217.684 35.9672 213.739 36.7539 207.638C37.5576 201.299 37.784 196.969 30.5845 189.3C23.385 181.63 27.0583 176.01 29.6449 169.971C32.2316 163.931 30.8562 158.583 28.2752 154.123C30.2525 156.67 31.5532 159.676 32.0561 162.862C32.5768 166.484 31.2241 169.512 30.1657 172.88Z" fill="black"/>
<path d="M81.5981 186.298C82.6622 188.873 83.5112 191.709 82.849 194.414C81.8358 198.557 77.6191 201.206 76.2041 205.23C74.5061 209.985 77.121 215.543 75.14 220.178C74.3137 222.12 72.7232 223.755 72.344 225.838C72.2049 226.607 72.242 227.398 72.4527 228.151C72.6634 228.904 73.042 229.599 73.5602 230.184C74.0784 230.769 74.7226 231.229 75.4442 231.529C76.1659 231.83 76.9463 231.962 77.7267 231.917C78.8304 229.653 81.3434 228.34 82.5037 226.099C83.9527 223.314 82.9452 219.929 81.8358 216.986C80.7265 214.043 79.5435 210.76 80.7038 207.856C81.5132 205.819 83.3131 204.381 84.6658 202.655C85.7686 201.222 86.5715 199.581 87.0266 197.83C87.4817 196.08 87.5797 194.256 87.3147 192.467C86.8845 189.711 85.6167 187.164 84.2866 184.707C82.9565 182.251 82.0226 180.745 81.1566 178.085C80.3416 175.679 80.8793 172.351 81.8924 168.995C80.2788 171.486 79.3191 174.344 79.102 177.304C78.8587 180.621 80.3246 183.292 81.5981 186.298Z" fill="#ADD2E2"/>
<path opacity="0.2" d="M81.5981 186.298C82.6622 188.873 83.5112 191.709 82.849 194.414C81.8358 198.557 77.6191 201.206 76.2041 205.23C74.5061 209.985 77.121 215.543 75.14 220.178C74.3137 222.12 72.7232 223.755 72.344 225.838C72.2049 226.607 72.242 227.398 72.4527 228.151C72.6634 228.904 73.042 229.599 73.5602 230.184C74.0784 230.769 74.7226 231.229 75.4442 231.529C76.1659 231.83 76.9463 231.962 77.7267 231.917C78.8304 229.653 81.3434 228.34 82.5037 226.099C83.9527 223.314 82.9452 219.929 81.8358 216.986C80.7265 214.043 79.5435 210.76 80.7038 207.856C81.5132 205.819 83.3131 204.381 84.6658 202.655C85.7686 201.222 86.5715 199.581 87.0266 197.83C87.4817 196.08 87.5797 194.256 87.3147 192.467C86.8845 189.711 85.6167 187.164 84.2866 184.707C82.9565 182.251 82.0226 180.745 81.1566 178.085C80.3416 175.679 80.8793 172.351 81.8924 168.995C80.2788 171.486 79.3191 174.344 79.102 177.304C78.8587 180.621 80.3246 183.292 81.5981 186.298Z" fill="black"/>
<path opacity="0.1" d="M81.5971 186.3C82.6612 188.875 83.5102 191.711 82.848 194.416C81.8348 198.559 77.6181 201.208 76.2031 205.233C74.5051 209.987 77.1201 215.545 75.1391 220.181C74.3127 222.122 72.7222 223.758 72.343 225.841C72.2104 226.61 72.2508 227.399 72.4613 228.151C72.6718 228.903 73.0471 229.599 73.5599 230.187C74.0504 230.739 74.6549 231.177 75.3315 231.472C77.5502 228.014 79.4123 224.216 78.2351 218.698C77.0069 212.947 76.4692 208.996 82.4801 201.406C88.491 193.816 84.6875 188.954 81.8461 183.611C79.0048 178.268 79.8595 173.265 81.8801 168.98C80.2665 171.471 79.3068 174.329 79.0897 177.289C78.8577 180.623 80.3236 183.294 81.5971 186.3Z" fill="black"/>
<path d="M49.5059 211.645C49.1154 209.46 47.8079 207.281 46.6759 205.419C46.1242 204.554 45.7804 203.573 45.6714 202.553C45.5624 201.532 45.6912 200.501 46.0476 199.538C46.7721 197.274 48.2777 195.52 48.8267 193.211C49.1351 192.01 49.2024 190.76 49.0246 189.533C48.8468 188.306 48.4275 187.126 47.7909 186.062C46.7778 184.364 45.5269 182.723 45.3515 180.776C45.193 179.23 45.7137 177.702 45.9967 176.174C46.1608 175.274 46.1042 174.114 45.2666 173.752C44.9638 173.666 44.645 173.654 44.3367 173.717C44.0285 173.78 43.7399 173.916 43.495 174.114C41.969 175.061 40.7806 176.465 40.099 178.127C37.9991 183.436 40.948 185.57 41.1744 189.515C41.2876 191.507 39.9631 193.765 39.1707 195.576C38.3783 197.388 36.969 198.893 36.6011 200.812C35.9728 204.1 38.5934 207.151 38.8651 210.485C39.0802 213.258 38.101 215.619 39.6349 218.154C40.1276 219.021 40.8743 219.717 41.7743 220.147C43.7214 220.99 45.3798 219.416 46.6872 218.103C48.3399 216.445 49.9417 214.096 49.5059 211.645Z" fill="#ADD2E2"/>
<path opacity="0.1" d="M49.5059 211.645C49.1154 209.46 47.8079 207.281 46.6759 205.419C46.1242 204.554 45.7804 203.573 45.6714 202.553C45.5624 201.532 45.6912 200.501 46.0476 199.538C46.7721 197.274 48.2777 195.52 48.8267 193.211C49.1351 192.01 49.2024 190.76 49.0246 189.533C48.8468 188.306 48.4275 187.126 47.7909 186.062C46.7778 184.364 45.5269 182.723 45.3515 180.776C45.193 179.23 45.7137 177.702 45.9967 176.174C46.1608 175.274 46.1042 174.114 45.2666 173.752C44.9638 173.666 44.645 173.654 44.3367 173.717C44.0285 173.78 43.7399 173.916 43.495 174.114C41.969 175.061 40.7806 176.465 40.099 178.127C37.9991 183.436 40.948 185.57 41.1744 189.515C41.2876 191.507 39.9631 193.765 39.1707 195.576C38.3783 197.388 36.969 198.893 36.6011 200.812C35.9728 204.1 38.5934 207.151 38.8651 210.485C39.0802 213.258 38.101 215.619 39.6349 218.154C40.1276 219.021 40.8743 219.717 41.7743 220.147C43.7214 220.99 45.3798 219.416 46.6872 218.103C48.3399 216.445 49.9417 214.096 49.5059 211.645Z" fill="black"/>
<path d="M43.0535 178.257C42.7721 179.159 42.7061 180.115 42.861 181.047C43.0169 181.971 43.2556 182.878 43.5742 183.758C44.1742 185.536 44.8873 187.29 45.0684 189.13C45.1668 190.038 45.0899 190.956 44.842 191.835C44.716 192.272 44.5493 192.697 44.344 193.103L43.7383 194.365C42.8386 196.034 42.0629 197.767 41.4177 199.55C40.8475 201.421 40.7656 203.406 41.18 205.317C41.2536 205.798 41.3951 206.257 41.5083 206.727L41.8819 208.079C42.1196 208.974 42.346 209.879 42.5384 210.785C42.9534 212.567 43.1698 214.389 43.1836 216.219C43.225 217.985 42.8097 219.731 41.9781 221.29L43.3195 222.026C44.2179 220.231 44.6408 218.235 44.5477 216.23C44.4656 214.308 44.1733 212.4 43.6761 210.542C43.444 209.619 43.1836 208.708 42.9063 207.802C42.629 206.896 42.3403 206.019 42.1309 205.136C41.6855 203.377 41.6991 201.534 42.1705 199.782C42.7461 198.017 43.4479 196.296 44.2704 194.631L44.8364 193.341C45.0345 192.9 45.1954 192.444 45.3175 191.977C45.545 191.036 45.593 190.06 45.459 189.101C45.2043 187.194 44.4175 185.456 43.761 183.713C43.4139 182.845 43.1468 181.947 42.9629 181.03C42.7776 180.111 42.8086 179.162 43.0535 178.257V178.257Z" fill="#FAFAFA"/>
<path d="M87.3657 209.908C87.3091 209.902 87.2525 209.918 87.2072 209.953C86.7014 210.209 86.1525 210.368 85.5885 210.423C84.9846 210.48 84.3775 210.495 83.7716 210.468H83.4377L83.5452 210.287C83.9584 209.528 84.298 208.736 84.7225 207.989C85.147 207.242 85.8035 206.217 86.7374 205.929C86.8789 205.883 86.8733 205.504 86.7374 205.527C86.2855 205.571 85.8489 205.714 85.4583 205.946C85.0792 206.196 84.7364 206.496 84.4395 206.84C83.8404 207.592 83.3242 208.406 82.9 209.268C82.4703 210.044 81.9579 210.771 81.3718 211.436C81.1203 211.738 80.8312 212.006 80.5114 212.234C80.3263 212.381 80.1487 212.538 79.9794 212.704C79.8888 212.777 79.4587 213.026 79.4134 213.123L79.5492 212.477C79.64 211.929 79.7686 211.389 79.9341 210.859C80.1851 210.261 80.557 209.721 81.0265 209.274C81.1171 209.189 81.1001 208.838 80.9359 208.957C80.1647 209.564 79.5415 210.338 79.1134 211.221C78.6606 212.058 78.4229 212.992 77.9814 213.847C77.7663 214.227 77.5262 214.592 77.2626 214.939C76.9045 215.53 76.4491 216.057 75.9155 216.496C75.2363 217.005 74.3986 217.062 73.6515 217.424C73.7251 217.249 73.7987 217.068 73.8836 216.892C74.1496 216.298 74.4496 215.692 74.7495 215.126C74.9016 214.865 75.0699 214.614 75.2533 214.373C75.4758 214.066 75.7178 213.773 75.9778 213.496C76.4408 213.042 76.9998 212.698 77.6135 212.489C77.7663 212.432 77.7437 212.013 77.5569 212.041C76.8452 212.156 76.1616 212.403 75.542 212.772C75.2442 212.939 74.9685 213.142 74.7213 213.377C74.4553 213.644 74.2112 213.932 73.9911 214.238C73.9062 214.345 73.8383 214.47 73.7591 214.583C73.7619 214.556 73.7619 214.53 73.7591 214.504C73.7296 213.784 73.9276 213.073 74.3251 212.472C74.3986 212.375 74.3251 212.03 74.1836 212.166C73.7555 212.574 73.4213 213.07 73.2044 213.621C73.0011 214.239 72.8738 214.879 72.8252 215.528C72.7937 216.076 72.6673 216.614 72.4516 217.118C72.1843 217.479 71.8499 217.785 71.4668 218.018C70.7575 218.511 69.9326 218.812 69.0726 218.89C68.1517 219.006 67.22 219.006 66.2992 218.89C66.7317 218.781 67.1511 218.626 67.55 218.426C68.3764 218.001 68.9311 217.294 69.6895 216.773C70.0791 216.508 70.5039 216.298 70.9517 216.151C71.3543 216.078 71.7299 215.898 72.0384 215.63C72.0384 215.63 72.0384 215.579 72.0384 215.568C71.5064 215.149 70.4593 215.42 69.8763 215.63C68.9267 216.075 68.0094 216.585 67.1312 217.158C66.4475 217.492 65.7095 217.701 64.9521 217.775C64.3714 217.832 63.7854 217.799 63.2145 217.679C63.5393 217.265 63.9053 216.886 64.3069 216.547C64.7869 216.083 65.3209 215.678 65.8973 215.341C66.5163 215.025 67.1778 214.8 67.8613 214.673C68.7557 214.587 69.6371 214.397 70.4876 214.107C71.3588 213.682 72.0968 213.026 72.6214 212.211C73.1534 211.464 73.3459 210.592 74.1496 210.055C75.1854 209.364 76.5098 209.687 77.6475 209.33C78.0833 209.223 78.4802 208.995 78.7925 208.673C79.1048 208.351 79.32 207.947 79.4134 207.508C79.4134 207.434 79.3625 207.332 79.3002 207.429C79.1457 207.636 78.9537 207.813 78.7342 207.949C78.5247 208.118 78.2815 208.239 78.021 208.306C77.4955 208.426 76.9583 208.486 76.4193 208.487C75.6512 208.409 74.8756 208.453 74.1213 208.617C74.325 207.958 74.6643 207.349 75.1175 206.829C75.2363 206.698 75.1514 206.263 74.9533 206.438C74.5904 206.719 74.2567 207.036 73.9572 207.383C73.7037 207.735 73.491 208.115 73.3232 208.515C72.9813 209.357 72.5882 210.178 72.146 210.972C71.7004 211.711 71.0574 212.31 70.2895 212.704C69.8267 212.932 69.3261 213.074 68.8122 213.123C69.6899 212.368 70.4358 211.473 71.0196 210.474C71.2798 210.018 71.485 209.534 71.6309 209.03C71.7302 208.57 71.853 208.114 71.9988 207.666C72.3463 206.857 72.9202 206.165 73.6515 205.674C74.7175 205.025 75.9756 204.765 77.2117 204.938C78.2871 205.034 79.3398 205.283 80.4039 205.459C81.2673 205.637 82.1519 205.688 83.0301 205.612C83.4266 205.573 83.8114 205.455 84.1621 205.266C84.498 205.01 84.7613 204.671 84.9262 204.282C83.1264 205.04 81.2982 204.616 79.4813 204.191C78.8021 204.033 78.1173 203.885 77.4267 203.789L77.5343 203.755C80.0303 203.121 82.7019 202.719 84.7508 201.021C84.8527 200.931 84.8187 200.546 84.6489 200.637C83.4708 201.219 82.2113 201.62 80.9133 201.825V201.78C81.0855 201.231 81.1452 200.654 81.0888 200.082C81.0888 199.855 80.9925 199.595 80.7775 199.516C80.7507 200.104 80.6084 200.681 80.3586 201.214C80.2248 201.488 80.0218 201.722 79.7697 201.894C79.5176 202.066 79.225 202.169 78.921 202.193C78.1095 202.281 77.3092 202.452 76.5325 202.702C76.34 202.753 76.1532 202.816 75.9665 202.878C76.1872 202.759 76.4136 202.652 76.6174 202.527C77.0854 202.256 77.5172 201.927 77.9022 201.548C78.2698 201.108 78.5886 200.63 78.853 200.121C79.0091 199.842 79.1992 199.584 79.419 199.352C79.7998 199.053 80.2776 198.906 80.7605 198.939C81.5416 198.888 82.3679 198.978 83.0924 198.616C83.2452 198.537 83.2169 198.135 83.0132 198.203C82.1472 198.474 81.2133 198.146 80.3473 198.039C79.8106 197.955 79.2618 198 78.7455 198.169C78.6623 197.694 78.6132 197.213 78.5984 196.731C78.5837 196.323 78.7118 195.923 78.9606 195.599C79.0115 195.554 79.0228 195.373 78.9153 195.418C78.8078 195.463 78.638 195.48 78.5135 195.622C78.414 195.745 78.3373 195.885 78.287 196.035C78.1618 196.386 78.0894 196.755 78.072 197.127C78.0324 197.92 78.2644 198.876 77.8569 199.606C77.5671 200.058 77.2013 200.456 76.7758 200.784C76.376 201.091 75.9541 201.37 75.5137 201.616L75.474 201.644C75.4709 201.597 75.4709 201.55 75.474 201.503C75.5363 200.269 75.3269 199.035 75.7231 197.841C75.7231 197.784 75.7231 197.614 75.6269 197.676C74.8741 198.135 74.6647 199.097 74.6137 199.94C74.6064 200.939 74.4145 201.927 74.0477 202.855C73.5293 203.778 72.8001 204.566 71.9196 205.153C71.9196 204.989 71.8403 204.842 71.829 204.678C71.8148 204.437 71.8148 204.195 71.829 203.953C71.8356 203.481 71.8791 203.01 71.9592 202.544C72.1178 201.61 72.4255 200.708 72.8704 199.872C72.5648 199.833 72.3044 200.105 72.1516 200.365C71.5062 201.356 71.094 202.48 70.946 203.653C70.7989 204.853 70.8272 206.065 70.6744 207.264C70.6016 207.887 70.4416 208.497 70.1989 209.076C68.8122 212.279 65.2974 213.604 62.8409 215.805C61.9852 216.559 61.3282 217.511 60.9278 218.579C60.9305 218.568 60.9305 218.556 60.9278 218.545C60.7397 217.989 60.5884 217.422 60.475 216.847C60.526 216.609 60.5599 216.371 60.6165 216.139C60.7183 215.651 60.9102 215.187 61.1825 214.77C61.9127 213.728 63.2541 213.406 64.3465 212.919C64.488 212.856 64.4993 212.5 64.3465 212.472C63.6842 212.341 63.0007 212.362 62.3478 212.533C61.6948 212.705 61.0893 213.022 60.5769 213.462C60.7035 213.063 60.8625 212.675 61.0524 212.302C61.292 211.987 61.6022 211.733 61.958 211.56C62.6756 211.106 63.4725 210.791 64.3069 210.632C64.8389 210.53 65.3596 210.417 65.8917 210.304C66.2961 210.254 66.6944 210.163 67.0803 210.032C67.4325 209.885 67.7652 209.695 68.0708 209.466C68.5592 209.133 68.95 208.676 69.2028 208.142C69.2207 208.112 69.2302 208.078 69.2302 208.043C69.2302 208.008 69.2207 207.974 69.2028 207.944C69.1815 207.919 69.153 207.902 69.1215 207.895C69.0899 207.888 69.057 207.891 69.0273 207.904C68.9675 207.933 68.9137 207.974 68.8688 208.023C68.3173 208.518 67.6395 208.851 66.9105 208.985C66.0218 209.172 65.1219 209.251 64.2389 209.472C64.6556 209.075 64.9868 208.597 65.2125 208.068C65.2764 207.837 65.3696 207.614 65.4898 207.406C65.6204 207.229 65.7747 207.071 65.9483 206.936C66.6275 206.37 67.5161 206.149 68.116 205.515C68.8692 204.694 69.4112 203.701 69.6952 202.623C69.8748 201.936 69.9586 201.228 69.9442 200.518C70.1027 200.201 70.2555 199.884 70.4197 199.572C70.6495 199.136 70.9185 198.721 71.2234 198.333C71.3649 198.214 71.5007 198.084 71.6479 197.954C71.8893 197.735 72.1552 197.545 72.4403 197.388C73.4987 196.822 74.7043 196.641 75.7853 196.063C76.6032 195.653 77.2692 194.993 77.6871 194.178C77.738 194.065 77.755 193.89 77.6362 193.856C77.5173 193.822 77.4777 193.912 77.4211 193.98C76.9942 194.533 76.3977 194.931 75.7231 195.112C74.9533 195.282 74.1609 195.458 73.4081 195.678L73.1534 195.763C73.8574 194.631 74.089 193.267 73.7987 191.965C73.7591 191.813 73.5893 191.733 73.527 191.92C73.4438 192.272 73.4057 192.634 73.4138 192.996C73.403 193.532 73.2401 194.054 72.944 194.501C72.3113 195.29 71.6388 196.045 70.9291 196.765C70.494 197.248 70.0984 197.764 69.7461 198.31C69.5876 197.178 69.3669 196.046 69.3103 194.88C69.3103 194.795 69.2197 194.728 69.1631 194.824C68.6651 195.735 68.7386 197.025 68.8009 198.022C68.9393 199.226 68.8723 200.445 68.6028 201.627C68.3192 202.715 67.7686 203.715 67.001 204.536C66.411 205.002 65.7713 205.4 65.0936 205.725C64.9162 205.143 64.9668 204.516 65.2351 203.97C65.3189 203.732 65.4371 203.507 65.586 203.302C65.7714 203.09 65.9363 202.861 66.0784 202.618C66.4811 201.82 66.5875 200.905 66.3784 200.037C66.3784 200.037 66.3784 200.037 66.4067 200.008C66.9531 199.306 67.3395 198.493 67.5387 197.625C67.6337 197.187 67.6699 196.738 67.6463 196.29C67.5727 195.849 67.5727 195.4 67.6463 194.96C67.8727 194.099 68.7783 193.963 69.5084 193.658C69.9244 193.506 70.3083 193.277 70.6404 192.984C70.9559 192.677 71.1727 192.283 71.263 191.852C71.263 191.75 71.1668 191.62 71.1045 191.756C71.028 191.883 70.9253 191.992 70.8033 192.076C70.6813 192.16 70.5428 192.217 70.397 192.243C69.9669 192.39 69.5254 192.503 69.0895 192.622C68.6537 192.741 68.2632 192.848 67.8613 192.99C67.4961 193.101 67.1559 193.281 66.8595 193.522C66.8152 193.572 66.7679 193.619 66.718 193.663C66.2879 192.967 65.6992 192.147 65.6936 191.292C65.6936 191.116 65.4898 191.003 65.4502 191.23C65.2181 192.599 66.152 193.754 66.4237 195.044C66.6893 196.285 66.4619 197.58 65.7898 198.656C65.5634 198.294 65.2892 197.965 64.9747 197.676C64.4315 197.237 63.9927 196.682 63.6899 196.052C63.623 196.287 63.6452 196.539 63.7522 196.759C63.8332 196.999 63.9475 197.226 64.0918 197.433C64.2728 197.637 64.4357 197.857 64.5785 198.09C64.9877 198.713 65.2703 199.411 65.4106 200.144C65.5197 200.921 65.3295 201.71 64.8785 202.352C64.7766 202.499 64.4484 203.121 64.2559 203.127C64.0635 203.133 64.0748 202.335 64.0578 202.17C64.0578 202.119 64.0578 202.057 63.9899 202.035C63.922 202.012 63.8484 202.119 63.8314 202.21C63.6076 203.255 63.5636 204.331 63.7012 205.391C63.8031 205.917 63.9899 206.421 64.0578 206.947C64.0636 207.15 64.0291 207.352 63.9562 207.542C63.8833 207.731 63.7736 207.904 63.6333 208.051C63.0784 208.669 62.438 209.205 61.7316 209.642C61.133 210.041 60.623 210.559 60.2335 211.163C59.8439 211.768 59.5832 212.447 59.4676 213.156V213.287C59.255 212.804 59.1065 212.296 59.0261 211.775C58.9942 211.249 59.0975 210.723 59.3261 210.247C59.8072 209.279 60.758 208.645 61.5052 207.87C61.8892 207.475 62.2254 207.036 62.507 206.563C62.5679 206.474 62.6103 206.374 62.6315 206.268C62.642 206.215 62.6381 206.161 62.6201 206.11C62.6022 206.059 62.5709 206.014 62.5296 205.98C62.3067 206.38 61.9902 206.719 61.607 206.97C61.2083 207.17 60.7982 207.345 60.3788 207.496C60.1224 207.628 59.8861 207.796 59.677 207.995L59.4279 208.227C59.5454 207.835 59.7008 207.456 59.8921 207.095C60.3166 206.302 60.8486 205.572 61.2674 204.774C61.6817 203.95 61.9916 203.077 62.19 202.176C62.589 200.628 62.589 199.004 62.19 197.456C62.19 197.29 62.207 197.131 62.241 196.98C62.3728 196.299 62.6259 195.647 62.9881 195.056C63.3572 194.51 63.6486 193.916 63.8541 193.29C64.0278 192.645 64.0985 191.976 64.0635 191.309C64.0635 191.105 63.8427 191.167 63.8371 191.343C63.7983 191.998 63.5526 192.625 63.1352 193.131C62.6717 193.67 62.2426 194.237 61.8504 194.829C61.6877 195.097 61.5458 195.377 61.4259 195.667C60.8778 194.725 60.1713 193.884 59.3374 193.182C59.1902 193.058 59.1223 193.363 59.2015 193.46C59.7314 194.027 60.155 194.684 60.4524 195.401C60.702 196.102 60.8914 196.824 61.0184 197.558V197.671C61.0161 197.85 61.037 198.029 61.0807 198.203C61.193 199.771 60.987 201.346 60.475 202.833C59.909 204.48 58.6978 205.776 58.1318 207.4C58.0482 207.647 57.9783 207.898 57.9224 208.153C57.8884 207.995 57.8431 207.842 57.8092 207.683C57.7752 207.525 57.8092 207.423 57.8092 207.287C57.7978 206.799 57.8262 206.31 57.8941 205.827C58.0721 204.938 58.3691 204.078 58.777 203.268C59.1726 202.442 59.5092 201.589 59.7845 200.716C59.8807 200.359 59.8638 200.014 59.926 199.663C59.9995 199.275 60.0336 198.881 60.0279 198.486C60.0259 198.241 60.007 197.997 59.9713 197.756C59.9713 197.637 59.8977 197.348 59.7392 197.591C59.7045 197.66 59.687 197.736 59.6883 197.812C59.5908 198.732 59.3261 199.625 58.9072 200.45C58.4714 201.344 57.928 202.176 57.4809 203.07C57.5318 202.25 57.6054 201.435 57.6677 200.597C57.7865 198.961 57.5884 197.048 56.2753 195.916C56.1904 195.843 56.1395 196.052 56.1621 196.109C56.6942 197.156 56.2866 198.701 56.1961 199.838C56.1961 199.969 56.1961 200.105 56.1565 200.24C56.0025 199.82 55.8032 199.418 55.5622 199.04C55.2339 198.627 54.6169 198.05 54.0509 198.073C54.0113 198.073 53.9887 198.146 54.0057 198.174C54.2207 198.457 54.5264 198.661 54.7641 198.927C54.9778 199.171 55.1674 199.434 55.3301 199.714C55.6155 200.203 55.8075 200.74 55.8961 201.299C55.9613 201.862 55.9784 202.43 55.947 202.997C55.926 204.267 56.0074 205.537 56.1904 206.795C56.2923 207.361 56.4112 207.927 56.5527 208.493C56.6942 209.059 56.8753 209.659 57.0507 210.236C56.5739 209.653 56.1317 209.042 55.7263 208.408C55.5508 208.125 55.4037 207.842 55.2452 207.536C54.6986 206.631 54.3155 205.637 54.1132 204.599C54.063 203.914 53.8925 203.243 53.6095 202.618C53.5359 202.482 53.4227 202.674 53.451 202.765C53.643 203.615 53.6889 204.491 53.5868 205.357C53.6014 206.09 53.7531 206.814 54.034 207.491C54.0906 207.661 54.1698 207.819 54.2377 207.983C53.6717 207.553 52.6699 207.508 52.5793 206.625C52.5793 206.5 52.4435 206.625 52.4435 206.676C52.4277 206.873 52.4614 207.071 52.5414 207.252C52.6215 207.433 52.7454 207.591 52.902 207.712C53.2133 207.961 53.5925 208.108 53.9151 208.334C54.1183 208.497 54.3076 208.677 54.4811 208.872L54.9622 209.381C55.3121 209.936 55.6899 210.472 56.0942 210.989C56.9308 211.961 57.5915 213.072 58.0469 214.272C58.2507 214.888 58.4827 215.494 58.6752 216.111C58.7865 216.695 58.993 217.258 59.2864 217.775C59.4188 218.2 59.6495 218.588 59.96 218.907C60.092 219.033 60.2638 219.109 60.4458 219.121C60.6277 219.133 60.8083 219.082 60.9561 218.975C60.9298 219.264 60.9977 219.553 61.1497 219.8C61.3018 220.047 61.5297 220.238 61.7995 220.345C61.8443 220.367 61.8937 220.379 61.9438 220.379C61.9939 220.379 62.0433 220.367 62.0881 220.345C62.179 220.278 62.2551 220.193 62.3116 220.096C62.3681 219.999 62.4038 219.891 62.4164 219.779C63.1409 219.915 64.2616 220.192 64.3974 220.237C65.169 220.47 65.9532 220.659 66.7463 220.803C68.7412 221.241 70.7594 221.564 72.7912 221.771L73.2723 221.811C73.3775 221.836 73.4814 221.866 73.5836 221.901C74.3081 222.156 74.9986 222.507 75.7231 222.762C76.8834 223.163 78.4286 223.661 79.5662 222.943C79.6285 222.903 79.6738 222.688 79.5662 222.705C78.868 222.826 78.153 222.81 77.4607 222.66C76.8083 222.47 76.1798 222.206 75.5872 221.873C76.3087 221.856 77.027 221.771 77.7324 221.618C79.165 221.324 80.4421 220.519 81.3265 219.354C81.4001 219.264 81.3265 218.998 81.2246 219.128C80.0926 220.26 78.1173 220.492 76.5834 220.599C75.1529 220.677 73.7182 220.618 72.2988 220.424C72.0324 220.346 71.7553 220.312 71.4781 220.322L70.4876 220.175L70.8838 220.118C72.3386 219.88 73.7786 219.559 75.1967 219.156C76.3287 218.839 77.8399 218.234 79.0398 218.635C79.2606 218.709 79.2606 218.279 79.1078 218.194C78.7367 217.996 78.3407 217.85 77.9305 217.758C77.7286 217.715 77.5245 217.683 77.3192 217.662C77.1873 217.67 77.0549 217.67 76.923 217.662C77.094 217.306 77.3323 216.987 77.6248 216.722C77.8962 216.429 78.1979 216.165 78.5248 215.936C79.1667 215.474 79.894 215.145 80.6643 214.968C81.4678 214.848 82.2594 214.659 83.0301 214.402C83.6641 214.136 84.1621 213.626 84.7734 213.338C84.9262 213.27 84.8979 212.862 84.7055 212.936C84.0659 213.168 83.4943 213.558 82.8377 213.734C82.0433 213.868 81.2375 213.923 80.4322 213.898C80.8171 213.581 81.185 213.241 81.5642 212.902C81.8565 212.588 82.1919 212.317 82.5604 212.098C82.9458 211.893 83.357 211.741 83.7829 211.645C84.9772 211.345 86.3016 211.3 87.2412 210.411L87.3657 210.287C87.422 210.235 87.4631 210.168 87.4845 210.094C87.4895 210.074 87.4904 210.053 87.4871 210.033C87.4837 210.013 87.4763 209.993 87.4652 209.976C87.454 209.958 87.4395 209.943 87.4224 209.931C87.4053 209.92 87.386 209.912 87.3657 209.908V209.908Z" fill="#455A64"/>
<path d="M55.8112 211.555L65.0257 219.507L67.8217 224.76L61.1372 224.878L52.302 227.68L50.7908 222.128L55.2565 217.379L55.8112 211.555Z" fill="#ADD2E2"/>
<path opacity="0.3" d="M55.8112 211.555L65.0257 219.507L67.8217 224.76L61.1372 224.878L52.302 227.68L50.7908 222.128L55.2565 217.379L55.8112 211.555Z" fill="black"/>
<path d="M55.8113 211.555L49.6363 211L47.5308 217.051L50.7909 222.128L55.2567 217.379L55.8113 211.555Z" fill="#ADD2E2"/>
<path opacity="0.35" d="M55.8113 211.555L49.6363 211L47.5308 217.051L50.7909 222.128L55.2567 217.379L55.8113 211.555Z" fill="black"/>
<path d="M39.85 216.524L38.384 221.284L43.0026 220.43L47.9777 223.877L49.9814 227.171L51.0851 233.278L51.8888 241.751L55.4319 235.01L52.302 227.68L48.9286 222.722L43.3988 219.943L39.85 216.524Z" fill="#ADD2E2"/>
<path d="M43.0875 235.83L36.3804 228.506L40.3254 223.209L43.0875 235.83Z" fill="#ADD2E2"/>
<g opacity="0.5">
<path opacity="0.5" d="M39.85 216.524L38.384 221.284L43.0026 220.43L47.9777 223.877L49.9814 227.171L51.0851 233.278L51.8888 241.751L55.4319 235.01L52.302 227.68L48.9286 222.722L43.3988 219.943L39.85 216.524Z" fill="black"/>
<path opacity="0.5" d="M43.0875 235.83L36.3804 228.506L40.3254 223.209L43.0875 235.83Z" fill="black"/>
</g>
<path d="M61.1882 216.196L64.2899 220.911L64.8276 223.39L61.1712 223.095L52.302 227.68L61.1373 224.878L67.8217 224.759L65.0257 219.507L61.1882 216.196Z" fill="#ADD2E2"/>
<path d="M49.6363 211L48.9854 216.937L51.9512 220.894L50.7909 222.128L47.5308 217.051L49.6363 211Z" fill="#ADD2E2"/>
<path d="M55.432 235.01L60.2034 234.761L70.0914 233.051L76.6796 229.401L74.942 225.891L71.4498 224.833L74.1666 226.497L74.3081 228.818L70.7027 230.895L56.1395 233.736L52.302 227.68L55.432 235.01Z" fill="#ADD2E2"/>
<g opacity="0.25">
<path opacity="0.25" d="M61.1884 216.196L64.2901 220.911L64.8278 223.39L61.1715 223.095L52.3022 227.68L61.1375 224.878L67.8219 224.759L65.0259 219.507L61.1884 216.196Z" fill="black"/>
<path opacity="0.25" d="M49.6363 211L48.9854 216.937L51.9512 220.894L50.7909 222.128L47.5308 217.051L49.6363 211Z" fill="black"/>
<path opacity="0.25" d="M55.4322 235.01L60.2036 234.761L70.0916 233.051L76.6799 229.401L74.9422 225.891L71.45 224.833L74.1668 226.497L74.3083 228.818L70.7029 230.895L56.1397 233.736L52.3022 227.68L55.4322 235.01Z" fill="black"/>
</g>
<path d="M65.0257 219.507L71.4498 224.833L74.1665 226.497L74.308 228.818L70.7026 230.895L56.1395 233.736L55.0527 232.021L60.4807 228.24L64.0295 229.01L67.8217 224.759L65.0257 219.507Z" fill="#ADD2E2"/>
<path opacity="0.35" d="M65.0257 219.507L71.4498 224.833L74.1665 226.497L74.308 228.818L70.7026 230.895L56.1395 233.736L55.0527 232.021L60.4807 228.24L64.0295 229.01L67.8217 224.759L65.0257 219.507Z" fill="black"/>
<path d="M49.6362 211L39.8501 216.524L43.3989 219.943L48.9287 222.722L52.3021 227.68L50.7909 222.128L47.5307 217.051L49.6362 211Z" fill="#ADD2E2"/>
<path d="M43.0026 220.43L47.9778 223.877L49.9814 227.171L51.0851 233.278L48.7362 238.491L43.0875 235.83L40.3254 223.209L43.0026 220.43Z" fill="#ADD2E2"/>
<path d="M67.8217 224.759L64.0295 229.01L60.4807 228.24L61.1373 224.878L67.8217 224.759Z" fill="#ADD2E2"/>
<path d="M71.0366 236.617L67.9576 236.951L66.7124 235.106L60.2034 234.761L70.0914 233.051L71.0366 236.617Z" fill="#ADD2E2"/>
<g opacity="0.45">
<path opacity="0.45" d="M49.6362 211L39.8501 216.524L43.3989 219.943L48.9287 222.722L52.3021 227.68L50.7909 222.128L47.5307 217.051L49.6362 211Z" fill="black"/>
<path opacity="0.45" d="M43.0026 220.43L47.9778 223.877L49.9814 227.171L51.0851 233.278L48.7362 238.491L43.0875 235.83L40.3254 223.209L43.0026 220.43Z" fill="black"/>
<path opacity="0.45" d="M67.822 224.759L64.0298 229.01L60.481 228.24L61.1375 224.878L67.822 224.759Z" fill="black"/>
<path opacity="0.45" d="M71.0366 236.617L67.9576 236.951L66.7124 235.106L60.2034 234.761L70.0914 233.051L71.0366 236.617Z" fill="black"/>
</g>
<path d="M57.4243 234.908L60.2034 234.761L62.3995 238.174L59.2865 241.287L57.4243 234.908Z" fill="#ADD2E2"/>
<path opacity="0.35" d="M57.4243 234.908L60.2034 234.761L62.3995 238.174L59.2865 241.287L57.4243 234.908Z" fill="black"/>
<path d="M38.3841 221.284L34.241 225.535L36.3804 228.506L40.3255 223.209L43.0026 220.43L38.3841 221.284Z" fill="#ADD2E2"/>
<path d="M51.8887 241.751L48.7361 238.491L51.085 233.278L51.8887 241.751Z" fill="#ADD2E2"/>
<path d="M52.302 227.68L55.0528 232.021L60.4807 228.24L61.1373 224.878L52.302 227.68Z" fill="#ADD2E2"/>
<path d="M76.6796 229.401L77.6135 233.685L71.0365 236.617L70.0913 233.051L76.6796 229.401Z" fill="#ADD2E2"/>
<path d="M51.8889 241.751L59.2865 241.287L57.4244 234.908L55.4321 235.01L51.8889 241.751Z" fill="#ADD2E2"/>
<path d="M67.9576 236.951L62.3995 238.174L60.2034 234.761L66.7124 235.106L67.9576 236.951Z" fill="#ADD2E2"/>
<g opacity="0.4">
<path opacity="0.4" d="M38.3841 221.284L34.241 225.535L36.3804 228.506L40.3255 223.209L43.0026 220.43L38.3841 221.284Z" fill="black"/>
<path opacity="0.4" d="M51.8887 241.751L48.7361 238.491L51.085 233.278L51.8887 241.751Z" fill="black"/>
<path opacity="0.4" d="M52.302 227.68L55.0528 232.021L60.4807 228.24L61.1373 224.878L52.302 227.68Z" fill="black"/>
<path opacity="0.4" d="M76.6796 229.401L77.6135 233.685L71.0365 236.617L70.0913 233.051L76.6796 229.401Z" fill="black"/>
<path opacity="0.4" d="M51.8889 241.751L59.2865 241.287L57.4244 234.908L55.4321 235.01L51.8889 241.751Z" fill="black"/>
<path opacity="0.4" d="M67.9576 236.951L62.3995 238.174L60.2034 234.761L66.7124 235.106L67.9576 236.951Z" fill="black"/>
</g>
<path d="M87.1392 223.984L92.437 228.552L94.0444 231.568L90.207 231.636L85.1243 233.244L84.2583 230.057L86.8223 227.329L87.1392 223.984Z" fill="#ADD2E2"/>
<path opacity="0.3" d="M87.1392 223.984L92.437 228.552L94.0444 231.568L90.207 231.636L85.1243 233.244L84.2583 230.057L86.8223 227.329L87.1392 223.984Z" fill="black"/>
<path d="M87.1392 223.984L83.596 223.661L82.3848 227.142L84.2582 230.057L86.8222 227.329L87.1392 223.984Z" fill="#ADD2E2"/>
<path opacity="0.35" d="M87.1392 223.984L83.596 223.661L82.3848 227.142L84.2582 230.057L86.8222 227.329L87.1392 223.984Z" fill="black"/>
<path d="M77.97 226.837L77.1267 229.57L79.7812 229.084L82.6395 231.059L83.7942 232.955L84.4281 236.464L84.8866 241.332L86.9242 237.461L85.1243 233.244L83.1886 230.397L80.0077 228.801L77.97 226.837Z" fill="#ADD2E2"/>
<path d="M79.8323 237.93L75.9778 233.719L78.2418 230.68L79.8323 237.93Z" fill="#ADD2E2"/>
<g opacity="0.5">
<path opacity="0.5" d="M77.97 226.837L77.1267 229.57L79.7812 229.084L82.6395 231.059L83.7942 232.955L84.4281 236.464L84.8866 241.332L86.9242 237.461L85.1243 233.244L83.1886 230.397L80.0077 228.801L77.97 226.837Z" fill="black"/>
<path opacity="0.5" d="M79.8323 237.93L75.9778 233.719L78.2418 230.68L79.8323 237.93Z" fill="black"/>
</g>
<path d="M90.2296 226.644L92.0125 229.355L92.3238 230.782L90.2239 230.612L85.1243 233.244L90.207 231.636L94.0444 231.568L92.437 228.552L90.2296 226.644Z" fill="#ADD2E2"/>
<path d="M83.596 223.661L83.2224 227.074L84.9261 229.35L84.2582 230.057L82.3848 227.142L83.596 223.661Z" fill="#ADD2E2"/>
<path d="M86.9242 237.46L89.6692 237.313L95.3462 236.334L99.1328 234.234L98.1366 232.219L96.1273 231.608L97.6895 232.565L97.7687 233.9L95.7028 235.095L87.3317 236.725L85.1243 233.244L86.9242 237.46Z" fill="#ADD2E2"/>
<g opacity="0.25">
<path opacity="0.25" d="M90.2296 226.644L92.0125 229.355L92.3238 230.782L90.2239 230.612L85.1243 233.244L90.207 231.636L94.0444 231.568L92.437 228.552L90.2296 226.644Z" fill="black"/>
<path opacity="0.25" d="M83.596 223.661L83.2224 227.074L84.9261 229.35L84.2582 230.057L82.3848 227.142L83.596 223.661Z" fill="black"/>
<path opacity="0.25" d="M86.9242 237.46L89.6692 237.313L95.3462 236.334L99.1328 234.234L98.1366 232.219L96.1273 231.608L97.6895 232.565L97.7687 233.9L95.7028 235.095L87.3317 236.725L85.1243 233.244L86.9242 237.46Z" fill="black"/>
</g>
<path d="M92.4371 228.552L96.1275 231.608L97.6896 232.565L97.7689 233.9L95.703 235.095L87.3318 236.725L86.7092 235.74L89.8222 233.566L91.8655 234.014L94.0446 231.568L92.4371 228.552Z" fill="#ADD2E2"/>
<path opacity="0.35" d="M92.4371 228.552L96.1275 231.608L97.6896 232.565L97.7689 233.9L95.703 235.095L87.3318 236.725L86.7092 235.74L89.8222 233.566L91.8655 234.014L94.0446 231.568L92.4371 228.552Z" fill="black"/>
<path d="M83.596 223.661L77.97 226.837L80.0076 228.801L83.1885 230.397L85.1242 233.244L84.2582 230.057L82.3848 227.142L83.596 223.661Z" fill="#ADD2E2"/>
<path d="M79.7812 229.084L82.6395 231.059L83.7942 232.955L84.4281 236.464L83.0753 239.459L79.8322 237.93L78.2417 230.68L79.7812 229.084Z" fill="#ADD2E2"/>
<path d="M94.0446 231.568L91.8655 234.014L89.8223 233.566L90.2071 231.636L94.0446 231.568Z" fill="#ADD2E2"/>
<path d="M95.8895 238.383L94.1236 238.57L93.4048 237.511L89.6692 237.313L95.3462 236.334L95.8895 238.383Z" fill="#ADD2E2"/>
<g opacity="0.45">
<path opacity="0.45" d="M83.596 223.661L77.97 226.837L80.0076 228.801L83.1885 230.397L85.1242 233.244L84.2582 230.057L82.3848 227.142L83.596 223.661Z" fill="black"/>
<path opacity="0.45" d="M79.7812 229.084L82.6395 231.059L83.7942 232.955L84.4281 236.464L83.0753 239.459L79.8322 237.93L78.2417 230.68L79.7812 229.084Z" fill="black"/>
<path opacity="0.45" d="M94.0444 231.568L91.8653 234.014L89.822 233.566L90.2069 231.636L94.0444 231.568Z" fill="black"/>
<path opacity="0.45" d="M95.8895 238.383L94.1236 238.57L93.4048 237.511L89.6692 237.313L95.3462 236.334L95.8895 238.383Z" fill="black"/>
</g>
<path d="M88.073 237.398L89.6691 237.313L90.9256 239.277L89.1371 241.066L88.073 237.398Z" fill="#ADD2E2"/>
<path opacity="0.35" d="M88.073 237.398L89.6691 237.313L90.9256 239.277L89.1371 241.066L88.073 237.398Z" fill="black"/>
<path d="M77.1267 229.571L74.7495 232.016L75.9777 233.719L78.2417 230.68L79.7813 229.084L77.1267 229.571Z" fill="#ADD2E2"/>
<path d="M84.8866 241.332L83.0754 239.458L84.4282 236.464L84.8866 241.332Z" fill="#ADD2E2"/>
<path d="M85.1243 233.244L86.7091 235.74L89.8221 233.566L90.207 231.636L85.1243 233.244Z" fill="#ADD2E2"/>
<path d="M99.1327 234.234L99.6704 236.696L95.8896 238.383L95.3462 236.334L99.1327 234.234Z" fill="#ADD2E2"/>
<path d="M84.8867 241.332L89.1374 241.066L88.0733 237.398L86.9243 237.46L84.8867 241.332Z" fill="#ADD2E2"/>
<path d="M94.1236 238.57L90.9257 239.277L89.6692 237.313L93.4048 237.511L94.1236 238.57Z" fill="#ADD2E2"/>
<g opacity="0.4">
<path opacity="0.4" d="M77.1267 229.571L74.7495 232.016L75.9777 233.719L78.2417 230.68L79.7813 229.084L77.1267 229.571Z" fill="black"/>
<path opacity="0.4" d="M84.8866 241.332L83.0754 239.458L84.4282 236.464L84.8866 241.332Z" fill="black"/>
<path opacity="0.4" d="M85.1243 233.244L86.7091 235.74L89.8221 233.566L90.207 231.636L85.1243 233.244Z" fill="black"/>
<path opacity="0.4" d="M99.1327 234.234L99.6704 236.696L95.8896 238.383L95.3462 236.334L99.1327 234.234Z" fill="black"/>
<path opacity="0.4" d="M84.8867 241.332L89.1374 241.066L88.0733 237.398L86.9243 237.46L84.8867 241.332Z" fill="black"/>
<path opacity="0.4" d="M94.1236 238.57L90.9257 239.277L89.6692 237.313L93.4048 237.511L94.1236 238.57Z" fill="black"/>
</g>
<path d="M76.4474 142.893C78.5076 143.787 81.847 141.286 85.8996 143.527C87.507 144.416 85.3845 146.046 83.3809 146.046C81.1848 146.046 78.3435 144.082 77.0983 143.878C75.1739 143.714 76.4474 142.893 76.4474 142.893Z" fill="#EBEBEB"/>
<path d="M76.9739 143.091C76.2098 142.95 74.291 140.261 73.3402 140.046C72.3893 139.831 74.1269 141.501 73.6062 142.565C73.0855 143.629 72.5761 144.003 72.1742 144.789C71.8912 145.355 71.9648 145.469 73.0458 144.835C74.1269 144.201 75.6551 143.329 77.6021 144.014L76.9739 143.091Z" fill="#EBEBEB"/>
<path d="M60.8879 152.193C62.6256 152.945 65.4159 150.84 68.8459 152.725C70.1986 153.472 68.4101 154.847 66.7234 154.847C64.8782 154.847 62.4841 153.189 61.437 153.025C59.8182 152.883 60.8879 152.193 60.8879 152.193Z" fill="#EBEBEB"/>
<path d="M61.3352 152.357C60.69 152.238 59.0712 149.991 58.2731 149.798C57.4751 149.606 58.9354 151.021 58.4995 151.915C58.0637 152.81 57.6335 153.126 57.2939 153.789C57.0562 154.253 57.1185 154.355 58.0241 153.823C58.9297 153.291 60.2258 152.555 61.8616 153.138L61.3352 152.357Z" fill="#EBEBEB"/>
<path d="M52.7321 141.059C54.0226 141.625 56.1281 140.046 58.6638 141.456C59.6712 142.022 58.3412 143.035 57.0846 143.035C55.7036 143.035 53.9207 141.801 53.1226 141.676C51.951 141.569 52.7321 141.059 52.7321 141.059Z" fill="#EBEBEB"/>
<path d="M53.0772 141.184C52.5961 141.093 51.3792 139.412 50.8132 139.271C50.2472 139.129 51.3056 140.182 50.983 140.85C50.6604 141.518 50.3378 141.75 50.0831 142.248C49.9076 142.593 49.9529 142.672 50.6491 142.248C51.0481 141.948 51.512 141.745 52.0035 141.657C52.495 141.568 53.0004 141.596 53.4791 141.739L53.0772 141.184Z" fill="#EBEBEB"/>
<path d="M193.87 61.4684C191.951 62.3004 188.844 59.9685 185.068 62.0344C183.574 62.8608 185.55 64.3776 187.412 64.3833C189.461 64.3833 192.104 62.5495 193.264 62.3627C195.058 62.2325 193.87 61.4684 193.87 61.4684Z" fill="#EBEBEB"/>
<path d="M193.377 61.6496C194.09 61.5194 195.879 59.029 196.773 58.8196C197.668 58.6101 196.043 60.178 196.524 61.1685C197.005 62.159 197.486 62.5042 197.86 63.24C198.126 63.7494 198.052 63.8739 197.051 63.2796C196.049 62.6853 194.617 61.876 192.811 62.5155L193.377 61.6496Z" fill="#EBEBEB"/>
<path d="M208.382 70.1282C206.763 70.8244 204.148 68.8661 200.973 70.6207C199.717 71.3168 201.375 72.596 202.948 72.596C204.646 72.596 206.91 71.0565 207.873 70.898C209.356 70.7678 208.382 70.1282 208.382 70.1282Z" fill="#EBEBEB"/>
<path d="M207.946 70.2811C208.546 70.1679 210.052 68.0737 210.776 67.8925C211.501 67.7114 210.159 69.0245 210.567 69.8679C210.974 70.7112 211.376 70.9999 211.699 71.6112C211.919 72.0413 211.857 72.1432 211.014 71.6451C210.171 71.147 208.965 70.4678 207.442 71.0055L207.946 70.2811Z" fill="#EBEBEB"/>
<path d="M215.938 59.7591C214.732 60.2798 212.78 58.8195 210.414 60.127C209.474 60.642 210.714 61.5986 211.885 61.5986C213.17 61.5986 214.829 60.4666 215.559 60.3307C216.685 60.2345 215.938 59.7591 215.938 59.7591Z" fill="#EBEBEB"/>
<path d="M215.632 59.8723C216.079 59.7874 217.2 58.2253 217.755 58.0894C218.309 57.9536 217.296 58.9441 217.596 59.5667C217.896 60.1893 218.202 60.4044 218.44 60.8628C218.604 61.1854 218.559 61.2647 217.925 60.8628C217.551 60.5767 217.115 60.3838 216.653 60.3002C216.19 60.2165 215.714 60.2445 215.264 60.3817L215.632 59.8723Z" fill="#EBEBEB"/>
<path d="M110.583 92.0154C109.06 88.5176 106.315 85.6819 103.395 83.2255C100.474 80.769 97.293 78.6295 94.4177 76.1165C94.1131 75.9017 93.893 75.5875 93.7951 75.2279C93.648 74.294 94.7913 73.8185 95.5384 73.9374C96.0233 74.0711 96.5199 74.1582 97.0213 74.1978C97.4984 74.1304 97.967 74.0127 98.4194 73.8468C99.3437 73.6912 100.286 73.6741 101.215 73.7959C102.2 73.8468 103.112 73.5978 104.085 73.8582C106.513 74.4977 107.945 77.1749 110.311 77.956C112.071 78.522 114.149 78.0013 115.728 78.9635C117.307 79.9257 117.748 81.9633 117.777 83.7915C117.777 85.2008 117.578 86.2083 117.833 87.6006C118.088 88.993 119.293 92.5531 121.908 97.8565C121.535 98.2414 112.977 101.937 112.818 101.111C112.439 98.9942 111.381 93.8606 110.583 92.0154Z" fill="#F28F8F"/>
<path d="M99.2118 79.9427C100.451 79.4502 103.315 80.452 106.717 83.2368C110.119 86.0215 112.7 88.1553 115.207 87.4761C117.714 86.7969 117.714 85.8687 117.714 85.8687C117.889 84.6896 117.986 83.5003 118.003 82.3085C118.003 80.6105 117.624 78.7993 115.173 78.1541C112.479 77.4466 111.732 78.0579 109.875 76.8183C108.019 75.5788 105.002 72.0243 101.674 68C98.3458 63.9758 96.9478 63.7437 91.6104 63.6645C86.2731 63.5853 73.8833 64.9097 73.8211 67.2699C73.8097 68.4132 89.2049 73.3261 99.2118 79.9427Z" fill="#ADD2E2"/>
<path opacity="0.34" d="M99.2118 79.9427C100.451 79.4502 103.315 80.452 106.717 83.2368C110.119 86.0215 112.7 88.1553 115.207 87.4761C117.714 86.7969 117.714 85.8687 117.714 85.8687C117.889 84.6896 117.986 83.5003 118.003 82.3085C118.003 80.6105 117.624 78.7993 115.173 78.1541C112.479 77.4466 111.732 78.0579 109.875 76.8183C108.019 75.5788 105.002 72.0243 101.674 68C98.3458 63.9758 96.9478 63.7437 91.6104 63.6645C86.2731 63.5853 73.8833 64.9097 73.8211 67.2699C73.8097 68.4132 89.2049 73.3261 99.2118 79.9427Z" fill="black"/>
<path d="M116.741 81.052C117.152 80.9439 117.509 80.6879 117.743 80.3332C117.542 79.7799 117.202 79.2882 116.754 78.9062C116.307 78.5242 115.768 78.265 115.19 78.1541C112.756 77.5145 111.907 77.9447 110.402 77.124C109.06 76.6655 107.911 75.8788 106.36 74.4355C104.221 72.4545 99.2345 66.3417 96.4611 65.3795C93.6877 64.4173 100.57 72.3016 100.57 72.3016C100.57 72.3016 87.5523 63.8116 86.6184 64.9436C85.6845 66.0756 96.2404 72.9469 96.2404 72.9469C96.2404 72.9469 80.9584 66.3134 78.1907 66.5171C75.4229 66.7209 78.6661 68.283 85.3336 70.9319C92.2728 73.6883 102.483 77.8711 105.97 79.8917C109.541 81.9859 114.081 82.0312 116.741 81.052Z" fill="#ADD2E2"/>
<path opacity="0.15" d="M116.741 81.052C117.152 80.9439 117.509 80.6879 117.743 80.3332C117.542 79.7799 117.202 79.2882 116.754 78.9062C116.307 78.5242 115.768 78.265 115.19 78.1541C112.756 77.5145 111.907 77.9447 110.402 77.124C109.06 76.6655 107.911 75.8788 106.36 74.4355C104.221 72.4545 99.2345 66.3417 96.4611 65.3795C93.6877 64.4173 100.57 72.3016 100.57 72.3016C100.57 72.3016 87.5523 63.8116 86.6184 64.9436C85.6845 66.0756 96.2404 72.9469 96.2404 72.9469C96.2404 72.9469 80.9584 66.3134 78.1907 66.5171C75.4229 66.7209 78.6661 68.283 85.3336 70.9319C92.2728 73.6883 102.483 77.8711 105.97 79.8917C109.541 81.9859 114.081 82.0312 116.741 81.052Z" fill="black"/>
<path d="M79.5772 115.21C76.617 112.799 72.1626 111.361 68.444 110.524C64.7254 109.686 60.9105 109.239 57.2032 108.328C56.8339 108.276 56.4939 108.098 56.241 107.824C55.675 107.06 56.4788 106.126 57.1976 105.877C57.6906 105.774 58.1722 105.622 58.6352 105.424C59.0286 105.149 59.3894 104.83 59.7106 104.473C60.4631 103.911 61.2947 103.462 62.1784 103.143C63.0783 102.735 63.7688 102.096 64.748 101.881C67.2045 101.315 69.7062 103.058 72.1852 102.651C74.0134 102.356 75.5812 100.953 77.4604 101.06C79.3395 101.168 80.6356 102.798 81.4959 104.411C82.1582 105.65 82.4298 106.647 83.2958 107.767C84.1618 108.888 86.8673 111.497 91.6273 115.006C91.4689 115.521 85.8881 121.663 85.8881 121.663C83.9545 119.352 81.8445 117.195 79.5772 115.21V115.21Z" fill="#F28F8F"/>
<path d="M64.4707 109.743C65.665 106.873 68.0535 105.277 73.838 106.013C79.6225 106.748 81.196 106.013 81.9262 105.282C81.6262 104.683 82.3507 100.698 80.0414 99.7357C77.9811 98.881 77.251 99.9394 73.8154 100.67C68.4893 101.802 67.5894 99.9055 56.3769 100.268C45.1645 100.63 42.2609 103.664 40.2289 104.943C38.197 106.222 26.5091 119.399 27.7034 122.144C28.8976 124.889 34.0539 120.836 43.2344 116.404C52.4149 111.973 57.7919 109.612 64.4707 109.743Z" fill="#ADD2E2"/>
<path opacity="0.34" d="M64.4707 109.743C65.665 106.873 68.0535 105.277 73.838 106.013C79.6225 106.748 81.196 106.013 81.9262 105.282C81.6262 104.683 82.3507 100.698 80.0414 99.7357C77.9811 98.881 77.251 99.9394 73.8154 100.67C68.4893 101.802 67.5894 99.9055 56.3769 100.268C45.1645 100.63 42.2609 103.664 40.2289 104.943C38.197 106.222 26.5091 119.399 27.7034 122.144C28.8976 124.889 34.0539 120.836 43.2344 116.404C52.4149 111.973 57.7919 109.612 64.4707 109.743Z" fill="black"/>
<path d="M79.9621 99.7074C77.9642 98.915 77.2057 99.9451 73.838 100.67C68.5119 101.802 67.612 99.9055 56.3996 100.268C45.1871 100.63 42.2835 103.664 40.2516 104.943C39.2611 105.571 35.9613 109.041 32.9841 112.742C38.5463 108.482 44.8206 105.244 51.515 103.177C57.8598 101.23 64.8895 102.073 68.5855 102.475C71.8792 102.793 75.2008 102.306 78.2641 101.054C79.5433 100.556 79.9735 100.07 79.9621 99.7074Z" fill="#ADD2E2"/>
<path opacity="0.15" d="M79.9621 99.7074C77.9642 98.915 77.2057 99.9451 73.838 100.67C68.5119 101.802 67.612 99.9055 56.3996 100.268C45.1871 100.63 42.2835 103.664 40.2516 104.943C39.2611 105.571 35.9613 109.041 32.9841 112.742C38.5463 108.482 44.8206 105.244 51.515 103.177C57.8598 101.23 64.8895 102.073 68.5855 102.475C71.8792 102.793 75.2008 102.306 78.2641 101.054C79.5433 100.556 79.9735 100.07 79.9621 99.7074Z" fill="black"/>
<path d="M123.069 126.287C118.937 124.34 117.754 122.857 117.199 120.87C116.011 116.642 113.673 106.25 111.381 94.936C112.479 96.1925 119.65 94.7379 119.927 93.2663C125.282 105.005 127.801 108.305 128.293 115.187C133.093 116.319 142.675 118.38 145.562 119.268C153.514 121.713 155.642 126.485 158.093 130.769L152.54 139.571C144.724 135.156 127.201 128.228 123.069 126.287Z" fill="#37474F"/>
<path opacity="0.15" d="M123.482 118.895C123.595 117.559 124.079 116.281 124.879 115.205C125.679 114.129 126.763 113.298 128.01 112.805C128.129 113.557 128.219 114.35 128.282 115.187C124.659 116.438 123.482 118.895 123.482 118.895Z" fill="black"/>
<path d="M109.796 129.032C109.796 129.032 122.735 127.702 129.991 126.824C136.738 120.598 145.443 122.042 149.037 124.317C151.198 125.69 153.242 127.239 155.15 128.947L147.792 146.267C133.879 145.214 112.926 144.065 105.823 142.027C98.8156 140.329 82.9959 118.663 82.9959 118.663C82.7865 117.452 87.0994 113.229 89.5841 113.065C96.6818 118.504 107.294 123.196 109.796 129.032Z" fill="#455A64"/>
<path opacity="0.15" d="M108.766 127.272C109.158 127.826 109.497 128.415 109.779 129.032C108.708 129.427 107.733 130.046 106.918 130.846C106.104 131.646 105.468 132.609 105.053 133.673C105.053 133.673 104.696 130.243 108.766 127.272Z" fill="black"/>
<path d="M171.671 114.808C171.672 113.653 171.365 112.517 170.782 111.52C170.198 110.522 169.36 109.697 168.353 109.131C167.345 108.564 166.205 108.276 165.05 108.296C163.894 108.316 162.765 108.643 161.777 109.244V109.244L146.071 118.668C145.131 119.209 144.436 120.091 144.13 121.13C143.15 124.113 144.628 128.109 147.429 130.045C149.201 131.268 151.074 131.381 152.461 130.549L168.247 120.564C169.285 120.004 170.152 119.173 170.755 118.16C171.358 117.146 171.674 115.988 171.671 114.808V114.808Z" fill="#ADD2E2"/>
<path opacity="0.7" d="M171.671 114.808C171.672 113.653 171.365 112.517 170.782 111.52C170.198 110.522 169.36 109.697 168.353 109.131C167.345 108.564 166.205 108.276 165.05 108.296C163.894 108.316 162.765 108.643 161.777 109.244V109.244L146.071 118.668C145.131 119.209 144.436 120.091 144.13 121.13C143.15 124.113 144.628 128.109 147.429 130.045C149.201 131.268 151.074 131.381 152.461 130.549L168.247 120.564C169.285 120.004 170.152 119.173 170.755 118.16C171.358 117.146 171.674 115.988 171.671 114.808V114.808Z" fill="white"/>
<path d="M148.725 117.061C148.428 119.455 148.89 121.883 150.048 124C151.206 126.117 153.001 127.816 155.178 128.856L157.368 127.475C157.368 127.475 154.312 126.66 152.274 122.772C150.237 118.883 150.978 115.748 150.978 115.748L148.725 117.061Z" fill="#455A64"/>
<path d="M155.319 113.105C155.078 115.428 155.566 117.768 156.717 119.8C157.845 121.924 159.633 123.622 161.811 124.64L163.996 123.259C163.996 123.259 160.962 122.489 158.936 118.6C156.91 114.712 157.532 111.808 157.532 111.808L155.319 113.105Z" fill="#455A64"/>
<path d="M171.852 110.224C170.845 108.797 169.186 108.237 168.145 108.973L167.092 109.714C166.045 110.45 166.017 112.199 167.019 113.625C168.02 115.052 169.685 115.612 170.726 114.876L171.779 114.135C172.826 113.399 172.854 111.65 171.852 110.224Z" fill="#ADD2E2"/>
<path opacity="0.5" d="M171.852 110.224C170.845 108.797 169.186 108.237 168.145 108.973L167.092 109.714C166.045 110.45 166.017 112.199 167.019 113.625C168.02 115.052 169.685 115.612 170.726 114.876L171.779 114.135C172.826 113.399 172.854 111.65 171.852 110.224Z" fill="black"/>
<path d="M171.852 110.224C172.854 111.65 172.826 113.399 171.779 114.135C170.731 114.87 169.079 114.31 168.077 112.884C167.075 111.457 167.103 109.709 168.145 108.973C169.186 108.237 170.845 108.797 171.852 110.224Z" fill="#ADD2E2"/>
<path opacity="0.3" d="M171.852 110.224C172.854 111.65 172.826 113.399 171.779 114.135C170.731 114.87 169.079 114.31 168.077 112.884C167.075 111.457 167.103 109.709 168.145 108.973C169.186 108.237 170.845 108.797 171.852 110.224Z" fill="black"/>
<path d="M172.503 109.81C171.937 108.978 170.952 108.678 170.341 109.08L169.283 109.827C168.671 110.258 168.654 111.276 169.243 112.091C169.832 112.906 170.794 113.252 171.405 112.822L172.463 112.074C173.075 111.661 173.092 110.642 172.503 109.81Z" fill="#ADD2E2"/>
<path opacity="0.5" d="M172.503 109.81C171.937 108.978 170.952 108.678 170.341 109.08L169.283 109.827C168.671 110.258 168.654 111.276 169.243 112.091C169.832 112.906 170.794 113.252 171.405 112.822L172.463 112.074C173.075 111.661 173.092 110.642 172.503 109.81Z" fill="black"/>
<path d="M172.503 109.81C173.069 110.642 173.069 111.661 172.464 112.074C171.858 112.488 170.89 112.176 170.301 111.344C169.713 110.512 169.735 109.494 170.341 109.08C170.947 108.667 171.92 108.978 172.503 109.81Z" fill="#ADD2E2"/>
<path opacity="0.3" d="M172.503 109.81C173.069 110.642 173.069 111.661 172.464 112.074C171.858 112.488 170.89 112.176 170.301 111.344C169.713 110.512 169.735 109.494 170.341 109.08C170.947 108.667 171.92 108.978 172.503 109.81Z" fill="black"/>
<path d="M202.614 114.174L198.364 114.853C197.84 114.937 197.306 114.918 196.79 114.795C196.275 114.672 195.788 114.449 195.359 114.139C194.929 113.828 194.565 113.436 194.288 112.985C194.01 112.533 193.823 112.032 193.739 111.508L189.483 85.0536L191.396 84.748L195.653 111.203C195.743 111.751 196.047 112.242 196.497 112.567C196.948 112.893 197.509 113.027 198.058 112.94L202.303 112.256L202.614 114.174Z" fill="#ADD2E2"/>
<g opacity="0.4">
<path opacity="0.4" d="M202.614 114.174L198.364 114.853C197.84 114.937 197.306 114.918 196.79 114.795C196.275 114.672 195.788 114.449 195.359 114.139C194.929 113.828 194.565 113.436 194.288 112.985C194.01 112.533 193.823 112.032 193.739 111.508L189.483 85.0536L191.396 84.748L195.653 111.203C195.743 111.751 196.047 112.242 196.497 112.567C196.948 112.893 197.509 113.027 198.058 112.94L202.303 112.256L202.614 114.174Z" fill="black"/>
</g>
<path d="M202.156 113.954C202.428 114.293 202.779 114.237 202.937 113.829C203.009 113.602 203.026 113.361 202.988 113.126C202.95 112.891 202.857 112.669 202.716 112.476C202.445 112.137 202.094 112.193 201.935 112.601C201.863 112.828 201.846 113.069 201.884 113.304C201.922 113.539 202.016 113.761 202.156 113.954V113.954Z" fill="#ADD2E2"/>
<path opacity="0.5" d="M202.156 113.954C202.428 114.293 202.779 114.237 202.937 113.829C203.009 113.602 203.026 113.361 202.988 113.126C202.95 112.891 202.857 112.669 202.716 112.476C202.445 112.137 202.094 112.193 201.935 112.601C201.863 112.828 201.846 113.069 201.884 113.304C201.922 113.539 202.016 113.761 202.156 113.954V113.954Z" fill="black"/>
<path d="M189.704 84.6178C189.37 84.8951 189.421 85.246 189.834 85.3989C190.059 85.473 190.299 85.4921 190.534 85.4547C190.768 85.4173 190.99 85.3244 191.181 85.1838C191.258 85.1426 191.319 85.0786 191.358 85.0007C191.397 84.9228 191.41 84.8349 191.396 84.749C191.383 84.6632 191.342 84.5838 191.282 84.5217C191.221 84.4597 191.142 84.4181 191.057 84.4027C190.83 84.3313 190.59 84.3135 190.355 84.3509C190.12 84.3882 189.897 84.4796 189.704 84.6178V84.6178Z" fill="#ADD2E2"/>
<path opacity="0.5" d="M189.704 84.6178C189.37 84.8951 189.421 85.246 189.834 85.3989C190.059 85.473 190.299 85.4921 190.534 85.4547C190.768 85.4173 190.99 85.3244 191.181 85.1838C191.258 85.1426 191.319 85.0786 191.358 85.0007C191.397 84.9228 191.41 84.8349 191.396 84.749C191.383 84.6632 191.342 84.5838 191.282 84.5217C191.221 84.4597 191.142 84.4181 191.057 84.4027C190.83 84.3313 190.59 84.3135 190.355 84.3509C190.12 84.3882 189.897 84.4796 189.704 84.6178V84.6178Z" fill="black"/>
<path d="M235.901 126.847C235.758 126.489 235.542 126.165 235.267 125.896C234.257 124.627 233.021 123.554 231.622 122.732C229.692 121.753 224.236 121.917 222.096 122.302C220.081 122.664 200.588 127.577 200.588 127.577C200.588 127.577 195.89 124.464 189.647 119.772C183.619 115.244 183.563 114.644 179.816 114.678L184.151 128.262C184.151 128.262 192.353 132.96 196.037 134.896C198.834 136.373 199.886 136.622 202.739 135.756C205.252 134.992 219.877 128.709 220.755 129.36C223.126 130.407 225.764 130.311 227.75 130.645C229.545 130.951 230.541 130.962 230.122 130.186C229.601 129.213 228.424 128.664 227.524 128.155C227.422 128.098 227.309 128.03 227.281 127.911C227.272 127.849 227.283 127.786 227.311 127.731C227.339 127.675 227.384 127.629 227.439 127.6C227.549 127.543 227.672 127.514 227.796 127.515C230.061 127.379 232.334 127.549 234.554 128.019C234.74 128.081 234.937 128.102 235.132 128.083C235.327 128.063 235.516 128.003 235.686 127.905C235.823 127.77 235.916 127.598 235.955 127.409C235.993 127.221 235.974 127.025 235.901 126.847Z" fill="#F28F8F"/>
<path d="M215.564 123.847C215.027 126.111 215.066 128.426 216.464 130.481C216.464 130.481 206.52 134.443 203.333 135.756C200.147 137.069 199.7 136.86 196.021 135.218C192.342 133.577 182.793 128.155 182.793 128.155L179.199 114.672C180.394 114.488 181.614 114.533 182.793 114.803C184.282 115.267 190.457 120.197 193.96 122.63C197.464 125.064 200.599 127.209 200.599 127.209L215.564 123.847Z" fill="#ADD2E2"/>
<path opacity="0.34" d="M215.564 123.847C215.027 126.111 215.066 128.426 216.464 130.481C216.464 130.481 206.52 134.443 203.333 135.756C200.147 137.069 199.7 136.86 196.021 135.218C192.342 133.577 182.793 128.155 182.793 128.155L179.199 114.672C180.394 114.488 181.614 114.533 182.793 114.803C184.282 115.267 190.457 120.197 193.96 122.63C197.464 125.064 200.599 127.209 200.599 127.209L215.564 123.847Z" fill="black"/>
<path opacity="0.1" d="M199.665 126.592C198.97 126.887 198.354 127.342 197.868 127.921C197.382 128.499 197.04 129.184 196.869 129.92C197.877 128.734 199.156 127.809 200.599 127.226L199.665 126.592Z" fill="black"/>
<path d="M173.963 115.386C173.114 115.516 164.341 116.953 164.341 116.953C161.772 117.712 156.712 126.53 155.099 128.879C152.767 131.143 150.978 131.041 150.978 131.041C150.678 131.607 150.333 132.281 150.039 132.971C147.576 138.733 147.463 142.593 147.814 146.266C150.542 146.957 155.931 147.449 160.504 147.121C164.817 146.816 171.32 144.546 174.292 142.338C176.227 140.912 177.065 140.216 178.65 138.942C185.306 137.556 186.874 131.686 185.742 126.745C184.519 121.413 183.478 119.263 181.095 115.25C180.495 114.248 178.531 114.706 173.963 115.386Z" fill="#455A64"/>
<path d="M155.178 147.172C151.782 147.444 147.82 146.267 147.82 146.267C147.82 146.267 146.371 140.952 149.342 134.041C149.778 133.016 150.279 132.019 150.842 131.058C151.426 131.012 151.992 130.832 152.495 130.532L154.963 128.975C152.784 140.318 155.223 146.759 155.178 147.172Z" fill="#ADD2E2"/>
<path opacity="0.7" d="M153.48 129.903L152.467 130.554L152.371 130.605C149.91 135.597 148.929 141.188 149.541 146.719C149.897 146.793 150.288 146.866 150.707 146.934H150.803L151.273 147.002L151.454 147.031L151.788 147.07C151.277 143.824 151.176 140.527 151.488 137.256C151.792 134.721 152.463 132.245 153.48 129.903V129.903Z" fill="white"/>
<path d="M176.776 138.512C174.937 139.644 172.175 139.684 169.667 138.761C167.16 137.839 165.705 134.958 165.779 132.699C165.779 132.699 164.358 137.856 168.915 139.825C173.754 141.92 176.686 139.135 176.776 138.512Z" fill="#37474F"/>
<path d="M173.856 114.514C173.963 113.823 172.877 111.978 171.422 110.484C170.109 109.137 169.209 107.275 168.507 103.234C167.998 100.313 164.455 100.783 162.598 98.6716C161.73 97.7511 161.236 96.5405 161.211 95.2756C161.262 93.5776 162.479 91.9701 162.236 90.2721C162.005 89.1925 161.405 88.2275 160.538 87.544C159.672 86.8717 158.841 86.1558 158.048 85.3989C157.652 85.0182 157.346 84.555 157.15 84.0424C156.955 83.5297 156.874 82.9802 156.916 82.433C157.157 81.4196 157.761 80.5297 158.614 79.9313C162.36 76.8692 168.303 76.4844 172.843 77.6277C176.923 78.6693 180.543 81.0364 183.133 84.3574C184.531 86.1573 185.589 88.1949 186.851 90.091C187.785 91.5814 188.964 92.9036 190.338 94.0021C191.504 94.8737 192.602 95.2699 193.536 96.5321C195.126 98.6829 195.013 101.162 193.875 103.579C193.457 104.365 192.843 105.029 192.092 105.509L173.856 114.514Z" fill="#263238"/>
<path d="M174.824 108.146L173.613 115.974C173.811 118.041 174.519 120.027 175.673 121.753C176.709 123.276 179.131 125.109 180.291 123.757C180.999 122.862 181.944 117.967 181.944 117.967L182.086 117.248L174.824 108.146Z" fill="#F28F8F"/>
<path d="M190.723 98.2358C190.723 98.2358 189.868 99.9338 185.414 101.456C181.633 102.758 179.833 103.398 176.963 107.728C175.797 109.267 175.769 107.462 175.395 105.05C175.391 104.696 175.312 104.347 175.163 104.026C175.013 103.705 174.798 103.419 174.529 103.188C173.833 102.594 171.699 102.436 170.986 104.716C170.449 106.448 171.445 108.328 171.96 108.905C172.187 109.168 172.468 109.378 172.785 109.521C173.102 109.664 173.446 109.736 173.794 109.731C174.042 109.728 174.286 109.664 174.505 109.545C174.723 109.426 174.908 109.254 175.044 109.046L175.35 108.809L176.052 111.271C176.394 112.616 176.942 113.901 177.676 115.08C178.497 115.844 180.767 117.038 181.22 117.044L181.938 117.259C184.112 117.825 187.202 117.887 188.419 117.468C189.636 117.05 191.815 115.923 192.041 108.678C192.29 99.8998 190.904 98.5697 190.723 98.2358Z" fill="#F28F8F"/>
<path d="M175.809 110.331C175.809 110.331 175.588 113.603 177.263 115.584C178.392 116.936 179.926 117.891 181.638 118.306L182.08 117.27C181.472 117.077 180.875 116.852 180.291 116.597C179.592 116.265 178.925 115.869 178.299 115.414C176.375 114.044 176.075 110.954 175.809 110.331Z" fill="#B16668"/>
<path d="M181.525 117.151C181.525 117.151 180.58 122.523 180.042 123.496C179.714 124.096 178.638 124.062 177.988 123.864C177.988 123.864 179.533 124.753 180.291 123.757C181.05 122.76 182.08 117.27 182.08 117.27L181.525 117.151Z" fill="#B16668"/>
<path d="M184.519 106.958C184.514 107.137 184.455 107.311 184.352 107.458C184.248 107.605 184.104 107.718 183.937 107.783C183.769 107.849 183.586 107.864 183.411 107.826C183.235 107.788 183.074 107.7 182.949 107.572C182.823 107.444 182.737 107.281 182.703 107.105C182.668 106.929 182.687 106.746 182.755 106.58C182.823 106.414 182.939 106.272 183.088 106.171C183.236 106.07 183.411 106.015 183.591 106.013C183.714 106.013 183.836 106.038 183.949 106.086C184.063 106.134 184.165 106.204 184.252 106.292C184.338 106.38 184.406 106.484 184.452 106.598C184.498 106.712 184.521 106.835 184.519 106.958V106.958Z" fill="#263238"/>
<path d="M184.253 103.754L182.131 104.484C182.04 104.195 182.063 103.882 182.197 103.61C182.331 103.338 182.565 103.128 182.85 103.024C182.99 102.977 183.138 102.959 183.285 102.97C183.432 102.981 183.576 103.022 183.707 103.091C183.838 103.159 183.954 103.253 184.048 103.367C184.142 103.481 184.212 103.613 184.253 103.754V103.754Z" fill="#263238"/>
<path d="M191.47 104.213L189.336 103.483C189.376 103.341 189.445 103.209 189.538 103.094C189.632 102.98 189.747 102.886 189.878 102.818C190.009 102.75 190.153 102.71 190.3 102.7C190.447 102.689 190.595 102.709 190.734 102.758C191.02 102.86 191.255 103.068 191.392 103.338C191.529 103.609 191.557 103.922 191.47 104.213V104.213Z" fill="#263238"/>
<path d="M191.345 106.443C191.34 106.622 191.281 106.796 191.178 106.943C191.074 107.09 190.93 107.203 190.763 107.268C190.595 107.334 190.412 107.349 190.237 107.311C190.061 107.273 189.9 107.185 189.774 107.057C189.649 106.929 189.563 106.766 189.529 106.59C189.494 106.414 189.512 106.231 189.581 106.065C189.649 105.899 189.765 105.757 189.914 105.656C190.062 105.555 190.237 105.5 190.417 105.498C190.54 105.498 190.662 105.523 190.775 105.571C190.889 105.619 190.991 105.689 191.078 105.777C191.164 105.865 191.232 105.969 191.278 106.083C191.324 106.197 191.347 106.32 191.345 106.443V106.443Z" fill="#263238"/>
<path d="M195.398 106.318V106.25C195.245 105.186 195.064 103.862 194.877 103.081C194.175 100.217 193.083 99.6847 186.908 100.013C180.733 100.341 177.286 101.037 176.89 103.975C176.776 104.784 176.725 106.171 176.68 107.286V107.348C176.663 107.847 176.749 108.344 176.933 108.807C177.117 109.271 177.395 109.691 177.75 110.043C178.103 110.395 178.527 110.669 178.993 110.847C179.459 111.025 179.957 111.104 180.455 111.078L182.612 110.971C183.413 110.927 184.183 110.65 184.828 110.173C185.472 109.696 185.963 109.041 186.24 108.288C186.41 107.846 186.755 107.094 187.253 107.065C187.751 107.037 188.176 107.756 188.385 108.197C189.115 109.692 189.942 110.631 191.566 110.546H191.945C192.454 110.52 192.951 110.389 193.406 110.161C193.861 109.933 194.264 109.612 194.589 109.22C194.913 108.828 195.153 108.372 195.292 107.882C195.432 107.393 195.467 106.879 195.398 106.375V106.318ZM191.889 109.386H191.509C190.315 109.443 189.908 108.729 189.376 107.648C188.934 106.748 188.243 105.871 187.202 105.916C186.161 105.962 185.555 106.918 185.204 107.852C185.004 108.404 184.647 108.885 184.176 109.235C183.705 109.585 183.141 109.789 182.555 109.822L180.399 109.929C180.053 109.946 179.708 109.891 179.385 109.767C179.062 109.643 178.769 109.454 178.523 109.211C178.277 108.968 178.084 108.676 177.957 108.354C177.83 108.033 177.771 107.688 177.784 107.343C177.823 106.284 177.88 104.869 177.988 104.1C178.242 102.294 180.342 101.428 186.964 101.105C193.587 100.783 193.371 101.553 193.802 103.33C193.977 104.06 194.164 105.424 194.305 106.454C194.356 106.808 194.333 107.169 194.236 107.513C194.139 107.858 193.972 108.178 193.745 108.454C193.517 108.73 193.235 108.955 192.915 109.116C192.595 109.276 192.246 109.368 191.889 109.386V109.386Z" fill="#ADD2E2"/>
<path opacity="0.3" d="M195.398 106.318V106.25C195.245 105.186 195.064 103.862 194.877 103.081C194.175 100.217 193.083 99.6847 186.908 100.013C180.733 100.341 177.286 101.037 176.89 103.975C176.776 104.784 176.725 106.171 176.68 107.286V107.348C176.663 107.847 176.749 108.344 176.933 108.807C177.117 109.271 177.395 109.691 177.75 110.043C178.103 110.395 178.527 110.669 178.993 110.847C179.459 111.025 179.957 111.104 180.455 111.078L182.612 110.971C183.413 110.927 184.183 110.65 184.828 110.173C185.472 109.696 185.963 109.041 186.24 108.288C186.41 107.846 186.755 107.094 187.253 107.065C187.751 107.037 188.176 107.756 188.385 108.197C189.115 109.692 189.942 110.631 191.566 110.546H191.945C192.454 110.52 192.951 110.389 193.406 110.161C193.861 109.933 194.264 109.612 194.589 109.22C194.913 108.828 195.153 108.372 195.292 107.882C195.432 107.393 195.467 106.879 195.398 106.375V106.318ZM191.889 109.386H191.509C190.315 109.443 189.908 108.729 189.376 107.648C188.934 106.748 188.243 105.871 187.202 105.916C186.161 105.962 185.555 106.918 185.204 107.852C185.004 108.404 184.647 108.885 184.176 109.235C183.705 109.585 183.141 109.789 182.555 109.822L180.399 109.929C180.053 109.946 179.708 109.891 179.385 109.767C179.062 109.643 178.769 109.454 178.523 109.211C178.277 108.968 178.084 108.676 177.957 108.354C177.83 108.033 177.771 107.688 177.784 107.343C177.823 106.284 177.88 104.869 177.988 104.1C178.242 102.294 180.342 101.428 186.964 101.105C193.587 100.783 193.371 101.553 193.802 103.33C193.977 104.06 194.164 105.424 194.305 106.454C194.356 106.808 194.333 107.169 194.236 107.513C194.139 107.858 193.972 108.178 193.745 108.454C193.517 108.73 193.235 108.955 192.915 109.116C192.595 109.276 192.246 109.368 191.889 109.386V109.386Z" fill="black"/>
<path opacity="0.5" d="M194.306 106.471C194.354 106.824 194.328 107.183 194.231 107.525C194.133 107.867 193.965 108.186 193.738 108.46C193.511 108.734 193.229 108.958 192.911 109.117C192.592 109.276 192.244 109.368 191.889 109.386H191.509C190.315 109.443 189.908 108.729 189.376 107.648C188.934 106.748 188.244 105.871 187.202 105.916C186.161 105.962 185.555 106.918 185.204 107.852C185.004 108.404 184.647 108.885 184.176 109.235C183.705 109.585 183.141 109.789 182.555 109.822L180.399 109.929C180.053 109.946 179.708 109.891 179.385 109.767C179.063 109.643 178.769 109.454 178.523 109.211C178.277 108.968 178.084 108.676 177.957 108.354C177.83 108.033 177.771 107.688 177.784 107.343C177.824 106.284 177.88 104.869 177.988 104.1C178.242 102.294 180.342 101.428 186.964 101.105C193.587 100.783 193.372 101.553 193.802 103.33C193.977 104.077 194.164 105.441 194.306 106.471Z" fill="#37474F"/>
<path d="M187.032 107.099L187.508 111.486L190.417 110.473L187.938 107.439C187.621 107.082 187.321 106.941 187.032 107.099Z" fill="#B16668"/>
<path d="M188.289 112.058C186.591 112.148 185.459 111.491 184.066 111.978C182.674 112.465 182.833 115.414 184.632 116.15C185.872 116.659 188.028 116.88 189.466 115.782C190.904 114.684 191.413 111.82 190.462 111.497C189.511 111.175 189.466 112.001 188.289 112.058Z" fill="#ADD2E2"/>
<path opacity="0.5" d="M188.289 112.058C186.591 112.148 185.459 111.491 184.066 111.978C182.674 112.465 182.833 115.414 184.632 116.15C185.872 116.659 188.028 116.88 189.466 115.782C190.904 114.684 191.413 111.82 190.462 111.497C189.511 111.175 189.466 112.001 188.289 112.058Z" fill="black"/>
<path d="M188.476 112.329C186.778 112.414 185.646 111.763 184.253 112.25C182.861 112.737 183.019 115.68 184.819 116.421C186.053 116.925 188.215 117.151 189.653 116.053C191.091 114.955 191.6 112.091 190.649 111.769C189.698 111.446 189.653 112.273 188.476 112.329Z" fill="#ADD2E2"/>
<path opacity="0.3" d="M188.476 112.329C186.778 112.414 185.646 111.763 184.253 112.25C182.861 112.737 183.019 115.68 184.819 116.421C186.053 116.925 188.215 117.151 189.653 116.053C191.091 114.955 191.6 112.091 190.649 111.769C189.698 111.446 189.653 112.273 188.476 112.329Z" fill="black"/>
<path d="M189.483 115.454C189.981 114.706 189.936 113.806 189.387 113.444L188.872 113.11C188.306 112.748 187.474 113.065 186.981 113.818C186.489 114.571 186.534 115.465 187.083 115.827L187.598 116.161C188.147 116.523 188.991 116.206 189.483 115.454Z" fill="#37474F"/>
<path d="M189.483 115.453C188.991 116.206 188.147 116.523 187.598 116.161C187.049 115.799 187.032 114.899 187.496 114.152C187.96 113.405 188.838 113.082 189.387 113.444C189.936 113.806 189.981 114.706 189.483 115.453Z" fill="#455A64"/>
<path d="M160.73 152.062C163.045 157.943 167.064 167.395 168.196 168.612C170.664 169.535 171.892 171.623 173.471 172.925C174.863 174.057 175.882 174.561 174.914 175.031C173.833 175.557 172.305 174.736 171.258 174.25C171.156 174.419 171.411 175.172 171.92 175.783C172.337 176.266 172.795 176.711 173.29 177.113C174.353 177.989 175.46 178.808 176.607 179.57C176.779 179.657 176.932 179.777 177.057 179.924C177.183 180.071 177.278 180.241 177.337 180.425C177.349 180.619 177.301 180.813 177.2 180.98C177.099 181.147 176.949 181.279 176.771 181.358C176.414 181.516 176.028 181.595 175.639 181.591C174.011 181.786 172.361 181.68 170.771 181.279C168.677 180.623 167.007 179.015 165.717 177.227C164.5 175.557 163.515 173.729 162.36 172.014C161.421 170.61 160.459 169.218 159.53 167.808C157.674 165.007 155.857 162.148 154.119 159.29C153.491 158.243 152.852 157.196 152.308 156.104C151.765 155.011 151.289 154.202 151.255 153.375C151.246 151.705 151.343 150.036 151.544 148.378C151.731 146.182 153.027 134.941 153.735 130.266C155.189 120.683 157.436 118.165 163.521 117.157C166.549 120.502 163.606 132.881 163.606 132.881L160.73 152.062Z" fill="#F28F8F"/>
<path d="M164.319 116.97C160.317 117.202 157.289 118.244 155.557 122.11C153.825 125.975 153.378 130.034 152.467 137.624C151.555 145.214 150.933 150.506 150.876 152.221C150.82 153.936 150.995 154.309 152.467 157.009C153.938 159.709 160.091 168.629 160.091 168.629C161.472 166.467 163.685 164.667 165.937 164.322L160.968 151.123L165.043 127.815C165.043 127.815 167.03 121.691 164.319 116.97Z" fill="#ADD2E2"/>
<path opacity="0.34" d="M164.319 116.97C160.317 117.202 157.289 118.244 155.557 122.11C153.825 125.975 153.378 130.034 152.467 137.624C151.555 145.214 150.933 150.506 150.876 152.221C150.82 153.936 150.995 154.309 152.467 157.009C153.938 159.709 160.091 168.629 160.091 168.629C161.472 166.467 163.685 164.667 165.937 164.322L160.968 151.123L165.043 127.815C165.043 127.815 167.03 121.691 164.319 116.97Z" fill="black"/>
<path opacity="0.1" d="M160.968 151.106C160.108 150.336 157.006 150.262 155.834 150.727C156.608 150.203 157.489 149.859 158.413 149.722C159.337 149.585 160.28 149.657 161.172 149.934L160.968 151.106Z" fill="black"/>
<path d="M171.507 132.343C170.186 132.352 168.871 132.161 167.607 131.777C166.424 131.447 165.322 130.875 164.373 130.095C163.423 129.315 162.647 128.346 162.094 127.249C159.887 122.721 162.208 116.212 167.268 112.793C167.511 112.623 167.873 113.161 167.63 113.325C162.824 116.58 160.606 122.693 162.677 126.966C163.193 127.981 163.915 128.878 164.797 129.598C165.679 130.318 166.702 130.846 167.8 131.149C171.399 132.281 175.939 131.618 179.935 129.377C188.074 124.821 188.17 115.227 188.17 114.797C188.17 114.542 188.815 114.542 188.815 114.797C188.815 115.221 188.719 125.2 180.252 129.943C177.587 131.47 174.578 132.296 171.507 132.343V132.343Z" fill="#263238"/>
<path opacity="0.4" d="M205.337 112.363C206.059 112.363 206.644 111.778 206.644 111.056C206.644 110.334 206.059 109.748 205.337 109.748C204.615 109.748 204.029 110.334 204.029 111.056C204.029 111.778 204.615 112.363 205.337 112.363Z" fill="#FAFAFA"/>
<path opacity="0.4" d="M206.995 97.6075C207.508 97.6075 207.923 97.1919 207.923 96.6793C207.923 96.1666 207.508 95.751 206.995 95.751C206.482 95.751 206.067 96.1666 206.067 96.6793C206.067 97.1919 206.482 97.6075 206.995 97.6075Z" fill="#FAFAFA"/>
<path opacity="0.4" d="M212.027 107.031C212.028 107.438 211.908 107.836 211.683 108.174C211.458 108.513 211.138 108.777 210.762 108.934C210.387 109.09 209.974 109.132 209.575 109.053C209.176 108.974 208.809 108.779 208.521 108.492C208.233 108.205 208.037 107.839 207.957 107.44C207.878 107.041 207.918 106.628 208.073 106.252C208.229 105.876 208.492 105.555 208.83 105.329C209.168 105.103 209.565 104.983 209.972 104.983C210.242 104.982 210.509 105.034 210.758 105.137C211.007 105.24 211.234 105.39 211.425 105.581C211.615 105.771 211.767 105.997 211.87 106.246C211.973 106.495 212.027 106.762 212.027 107.031V107.031Z" fill="#FAFAFA"/>
<path opacity="0.4" d="M207.318 102.152C207.318 102.778 207.132 103.39 206.784 103.91C206.437 104.431 205.943 104.836 205.364 105.076C204.786 105.315 204.15 105.378 203.536 105.256C202.923 105.134 202.359 104.832 201.916 104.39C201.474 103.947 201.173 103.383 201.051 102.77C200.928 102.156 200.991 101.52 201.231 100.942C201.47 100.364 201.876 99.8694 202.396 99.5218C202.916 99.1741 203.528 98.9885 204.154 98.9885C204.993 98.9885 205.798 99.3219 206.391 99.9152C206.984 100.509 207.318 101.313 207.318 102.152V102.152Z" fill="#FAFAFA"/>
<path opacity="0.4" d="M215.264 100.426C218.8 100.426 221.666 97.5602 221.666 94.0248C221.666 90.4893 218.8 87.6233 215.264 87.6233C211.729 87.6233 208.863 90.4893 208.863 94.0248C208.863 97.5602 211.729 100.426 215.264 100.426Z" fill="#FAFAFA"/>
</svg>
