<svg width="20" height="20" viewBox="0 0 20 20" fill="none" xmlns="http://www.w3.org/2000/svg">
<path d="M13.9792 3.24673L17.1111 6.77085C17.2431 6.91932 17.2431 7.16155 17.1111 7.31002L9.52778 15.8429L6.30556 16.2454C5.875 16.3001 5.51042 15.8898 5.55903 15.4054L5.91667 11.7796L13.5 3.24673C13.6319 3.09826 13.8472 3.09826 13.9792 3.24673ZM19.6042 2.35202L17.9097 0.445399C17.3819 -0.148467 16.5243 -0.148467 15.9931 0.445399L14.7639 1.82848C14.6319 1.97695 14.6319 2.21918 14.7639 2.36765L17.8958 5.89178C18.0278 6.04024 18.2431 6.04024 18.375 5.89178L19.6042 4.50869C20.1319 3.91092 20.1319 2.94589 19.6042 2.35202ZM13.3333 13.5222V17.4995H2.22222V4.99707H10.2014C10.3125 4.99707 10.4167 4.94628 10.4965 4.86032L11.8854 3.29752C12.1493 3.00059 11.9618 2.49658 11.5903 2.49658H1.66667C0.746528 2.49658 0 3.33659 0 4.37195V18.1246C0 19.16 0.746528 20 1.66667 20H13.8889C14.809 20 15.5556 19.16 15.5556 18.1246V11.9594C15.5556 11.5413 15.1076 11.3342 14.8438 11.6273L13.4549 13.1901C13.3785 13.2799 13.3333 13.3971 13.3333 13.5222Z" fill="#C4C4C4"/>
</svg>
