<svg width="30" height="30" viewBox="0 0 30 30" fill="none" xmlns="http://www.w3.org/2000/svg">
<path fill-rule="evenodd" clip-rule="evenodd" d="M10.6935 23.75C11.5597 25.2375 13.1547 26.25 14.9997 26.25C16.8447 26.25 18.4397 25.2375 19.306 23.75H10.6935ZM26.2499 20.5C26.2499 21.6046 25.3544 22.5 24.2499 22.5H5.74988C4.64531 22.5 3.74988 21.6046 3.74988 20.5V19.8205C3.74988 19.3896 4.02592 19.0071 4.4349 18.8714L4.60488 18.815C6.33613 18.2363 7.49988 16.6225 7.49988 14.7975V11.25C7.49988 7.11375 10.8636 3.75 14.9999 3.75C19.1361 3.75 22.4999 7.11375 22.4999 11.25V14.7975C22.4999 16.6225 23.6636 18.2363 25.3949 18.815L25.5649 18.8714C25.9738 19.0071 26.2499 19.3896 26.2499 19.8205V20.5ZM7.54364 20H22.4574C20.9311 18.7475 19.9999 16.8575 19.9999 14.7975V11.25C19.9999 8.49248 17.7574 6.24998 14.9999 6.24998C12.2424 6.24998 9.99989 8.49248 9.99989 11.25V14.7975C9.99989 16.8575 9.06864 18.7475 7.54364 20Z" fill="#C4C4C4"/>
<circle cx="23" cy="7" r="5" fill="#ED5D6D"/>
</svg>
